<?xml version="1.0" encoding="UTF-8"?>
<!DOCTYPE svg PUBLIC "-//W3C//DTD SVG 1.1//EN" "http://www.w3.org/Graphics/SVG/1.1/DTD/svg11.dtd">
<!-- Creator: CorelDRAW 2020 (64-Bit) -->
<svg xmlns="http://www.w3.org/2000/svg" xml:space="preserve" width="1181px" height="1063px" version="1.1" style="shape-rendering:geometricPrecision; text-rendering:geometricPrecision; image-rendering:optimizeQuality; fill-rule:evenodd; clip-rule:evenodd"
viewBox="0 0 1181 1062.9"
 xmlns:xlink="http://www.w3.org/1999/xlink"
 xmlns:xodm="http://www.corel.com/coreldraw/odm/2003">
 <defs>
  <style type="text/css">
   <![CDATA[
    .fil3 {fill:#1A8BCB}
    .fil1 {fill:#1C1B17}
    .fil4 {fill:#FEFEFE;fill-rule:nonzero}
    .fil0 {fill:#1A8BCB;fill-rule:nonzero}
    .fil2 {fill:#1C1B17;fill-rule:nonzero}
   ]]>
  </style>
 </defs>
 <g id="Layer_x0020_1">
  <metadata id="CorelCorpID_0Corel-Layer"/>
  <g id="_2540295555312">
   <path class="fil0" d="M185.95 775.77c44.82,0 74.69,9.7 89.64,29.09l0.02 0.02c1.28,1.91 2.24,3.82 2.89,5.72 0.64,1.92 0.97,3.83 0.97,5.74 0,7.89 -5.4,15.45 -16.19,22.68 -10.7,7.17 -26.74,14.04 -48.1,20.6l-0.02 0.01c-6.57,1.8 -12.95,3.16 -19.14,4.06 -6.2,0.9 -12.23,1.35 -18.07,1.35l-1.47 0c-0.51,3.44 -1.04,6.05 -1.59,7.81 -0.61,2 -1.33,3.01 -2.14,3.01l-0.45 0 -0.32 -0.13 -1.55 -1.48c0,-3.03 0.58,-6.24 0.92,-9.27 -5.78,-0.8 -10.15,-1.86 -13.09,-3.19 -3.15,-1.43 -4.73,-3.19 -4.73,-5.29l0.03 -0.16c0.3,-0.7 0.62,-1.26 0.95,-1.67 0.37,-0.46 0.77,-0.75 1.18,-0.86l0.13 -0.02 2.15 0 0.13 0.15c1.65,1.74 3.73,3.05 6.24,3.92 2.45,0.85 5.31,1.3 8.58,1.32 4.81,-16.16 8.41,-29.83 10.82,-41 2.42,-11.25 3.63,-19.98 3.63,-26.2l0 -5.66c-0.58,-0.59 -1.03,-1.16 -1.34,-1.68 -0.25,-0.44 -0.41,-0.85 -0.48,-1.24 -1.15,0.07 -2.79,0.44 -4.92,1.11 -2.42,0.75 -5.46,1.89 -9.12,3.4l-0.32 0.01c-1.49,-0.5 -2.61,-1.16 -3.37,-1.98 -0.78,-0.84 -1.17,-1.84 -1.17,-2.99 0,-1.83 1.26,-3.35 3.77,-4.56 2.4,-1.14 5.98,-2.02 10.72,-2.62l4.81 0zm10.48 6.26l0.27 0.79 0.02 0.13c0,3.61 -1.57,11.71 -4.71,24.3 -3.13,12.56 -7.82,29.59 -14.07,51.11l-0.42 1.75 3.23 0c13.56,0 27.26,-2.28 41.08,-6.84 13.82,-4.56 27.76,-11.41 41.84,-20.54 3.25,-3.03 5.68,-5.77 7.3,-8.2 1.6,-2.41 2.4,-4.52 2.4,-6.32l0 -3.63c0,-4.63 -2.77,-9.21 -8.31,-13.72 -5.6,-4.56 -14.02,-9.04 -25.24,-13.44 -6,-1.79 -12.01,-3.14 -18.01,-4.04 -6,-0.9 -12.02,-1.35 -18.05,-1.35l-7.33 0zm114.14 36.33l1.79 0c1.74,0.18 3.05,0.61 3.94,1.28 0.93,0.71 1.4,1.67 1.4,2.87l0 1.36c0,1.72 -1.96,4.4 -5.87,8.03 -3.83,3.56 -9.56,8.1 -17.2,13.61l-0.04 0.02c-2.25,1.28 -4.48,2.37 -6.67,3.29 -2.11,0.88 -4.19,1.58 -6.23,2.11l-0.3 1.37c0.01,1.62 0.53,2.98 1.56,4.06 1.05,1.12 2.65,1.98 4.78,2.57l3.1 0.34 1.06 0c0.95,0 2.6,-0.19 4.94,-0.59 2.34,-0.39 5.36,-0.98 9.04,-1.76l0.3 -0.06 0.89 1.24 0.08 0.25 0 1.24 -0.2 0.12c-2.2,1.39 -4.64,2.43 -7.33,3.11 -2.68,0.69 -5.62,1.04 -8.8,1.04 -3.51,0 -6.45,-0.68 -8.82,-2.02 -2.38,-1.34 -4.16,-3.36 -5.34,-6.04l-0.03 -0.11 -0.33 -2.37 0.28 -2.69 -0.04 -0.01c-0.66,-0.32 -1.16,-0.74 -1.5,-1.26 -0.35,-0.52 -0.52,-1.13 -0.52,-1.83 0,-1.28 0.46,-2.33 1.38,-3.15 0.89,-0.79 2.2,-1.34 3.92,-1.66l0.23 -0.04 0.14 0.13c5.58,-8.05 10.87,-14.11 15.86,-18.17 5.14,-4.19 9.99,-6.28 14.53,-6.28zm-25.66 25.25c3.62,-0.83 7.09,-2.2 10.42,-4.11 3.49,-2.01 6.82,-4.61 9.98,-7.82l0.04 -0.03c2.32,-1.9 4.07,-3.54 5.22,-4.93 0.96,-1.15 1.5,-2.11 1.63,-2.87l-2.4 -0.56c-3.43,0.01 -7.17,1.59 -11.19,4.73 -4.07,3.18 -8.42,7.96 -13.04,14.34l-0.66 1.25zm62.42 -86.97c2.48,0 4.73,0.77 6.74,2.3 1.99,1.51 3.75,3.76 5.27,6.74l0.04 0.11 1.09 5.16c0,3.52 -0.57,7.64 -1.7,12.35 -1.12,4.69 -2.8,9.98 -5.04,15.87l-0.11 0.17c-0.68,0.59 -1.29,1.02 -1.85,1.32 -0.6,0.31 -1.15,0.47 -1.64,0.47l-0.15 -0.03c-1.13,-0.38 -1.98,-0.88 -2.56,-1.5 -0.6,-0.64 -0.9,-1.41 -0.9,-2.28l0.04 -0.18 7.38 -15.17c0.46,-1.56 0.81,-3.19 1.04,-4.91 0.23,-1.73 0.35,-3.54 0.35,-5.45 0,-2.43 -0.59,-4.44 -1.77,-5.99 -1.17,-1.56 -2.94,-2.69 -5.31,-3.38l-0.99 -0.32c-1.88,0.04 -3.8,2.05 -5.75,6.01 -2.04,4.14 -4.07,10.36 -6.07,18.65 -1.66,11.95 -2.9,22.3 -3.72,31.06 -0.83,8.76 -1.24,15.97 -1.24,21.61l-0.29 2.41 0.64 0.21c3.84,0.01 6.96,0.32 9.33,0.95 2.46,0.64 4.15,1.62 5.07,2.94l0.08 0.24 0 1.21 -1.72 1.65 -5.12 -1.07 -1.37 0c-2.55,0 -4.45,0.13 -5.71,0.41 -1.07,0.23 -1.6,0.52 -1.6,0.86 0,4.99 -0.36,8.75 -1.08,11.28 -0.77,2.69 -1.97,4.04 -3.61,4.04l-0.88 0 -2.04 -1.96 0 -2.31 0.45 0c0.28,0 0.66,-0.87 1.13,-2.63 0.5,-1.85 1.01,-4.59 1.53,-8.23l-1.15 0.23 -0.18 0c-1.26,-0.25 -2.22,-0.69 -2.87,-1.31 -0.67,-0.65 -1.01,-1.48 -1.01,-2.49 0,-1.12 0.56,-2.04 1.7,-2.74 0.98,-0.61 2.41,-1.07 4.28,-1.35 0,-5.41 0.51,-13.08 1.52,-23 1,-9.93 2.51,-22.11 4.51,-36.53l0.01 -0.05c2.14,-8.37 4.46,-14.68 6.95,-18.89 2.55,-4.32 5.31,-6.48 8.28,-6.48zm26.31 37.57c1.03,0.41 1.8,0.98 2.32,1.73 0.52,0.75 0.78,1.66 0.78,2.74l-0.01 0.08c-0.53,2.64 -1.23,4.62 -2.07,5.96 -0.92,1.44 -2.02,2.15 -3.3,2.15l-0.69 0c-0.84,0 -1.6,-0.26 -2.27,-0.77 -0.64,-0.48 -1.2,-1.2 -1.68,-2.16l-0.05 -0.18c0,-1.9 0.34,-3.5 1.02,-4.81 0.67,-1.28 1.67,-2.27 2.99,-2.96 0.38,-0.57 0.78,-1 1.21,-1.3 0.49,-0.34 1.01,-0.51 1.58,-0.51l0.17 0.03zm-7.86 22.97c1.04,0.09 1.83,0.41 2.37,0.93 0.55,0.53 0.83,1.27 0.83,2.21l0 0.34c0,1.17 -2.23,8.97 -6.69,23.43 -0.82,3.49 -1.43,6.5 -1.84,9.01 -0.41,2.52 -0.61,4.56 -0.61,6.11l0.34 5.98 -1.97 1.14 -0.24 0.07c-0.74,0 -1.36,-0.48 -1.86,-1.44 -0.43,-0.83 -0.78,-2.05 -1.04,-3.66l-0.01 -0.07c0,-1.89 0.53,-5.48 1.6,-10.77 1.04,-5.18 2.6,-12 4.68,-20.46 -0.52,-0.3 -0.93,-0.72 -1.21,-1.26 -0.33,-0.63 -0.5,-1.4 -0.5,-2.33l0.03 -0.14c1.06,-2.96 2.08,-5.19 3.04,-6.68 1.03,-1.61 2.04,-2.42 3.04,-2.42l0.04 0.01zm22.62 -4.63c1.26,0.39 2.21,0.99 2.86,1.79 0.65,0.81 0.97,1.81 0.97,3.01l0 0.34c0,1.42 -0.53,3.96 -1.59,7.61 -0.95,3.24 -2.33,7.4 -4.13,12.45 4.53,-6.96 8.91,-12.27 13.14,-15.9 4.61,-3.96 9.05,-5.94 13.31,-5.94 2.25,0 4.01,0.82 5.27,2.46 1.23,1.59 1.97,3.95 2.21,7.07l0.37 2.06c0,3.69 -0.33,7.61 -0.97,11.78 -0.65,4.16 -1.61,8.57 -2.9,13.23 -1.28,4.65 -2.44,8.14 -3.49,10.48 -1.11,2.5 -2.16,3.75 -3.14,3.75l-0.15 -0.03c-0.53,-0.19 -0.99,-0.44 -1.38,-0.76 -0.39,-0.31 -0.72,-0.69 -0.99,-1.12l-0.09 -0.16c1.23,-4.49 2.71,-11.21 4.3,-15.34 1.34,-3.13 2.35,-6.43 3.02,-9.9 0.67,-3.46 1.01,-7.1 1.01,-10.92l0 -0.34c0,-2.51 -0.37,-4.39 -1.09,-5.61 -0.68,-1.15 -1.7,-1.73 -3.07,-1.73 -6.33,0 -14.32,7.15 -23.91,21.43 -2.39,3.97 -4.23,7.7 -5.51,11.18 -1.28,3.47 -2.01,6.69 -2.19,9.66l-0.03 0.13c-0.44,1.14 -0.85,2 -1.21,2.59 -0.45,0.71 -0.89,1.07 -1.31,1.07l-1.78 0 -0.17 -0.04c-0.56,-0.22 -0.99,-0.58 -1.27,-1.06 -0.28,-0.46 -0.42,-1.03 -0.42,-1.7l0.02 -0.12c3.28,-10.98 5.74,-19.53 7.38,-25.66 1.64,-6.16 2.47,-9.88 2.47,-11.15l1.06 -8.02 -1 -1.57 -0.06 -0.22 0 -1.36c0,-1.15 0.38,-2.02 1.13,-2.61 0.73,-0.57 1.79,-0.85 3.19,-0.85l0.14 0.02zm56.25 -18.34c1.03,0.41 1.81,0.98 2.33,1.73 0.52,0.75 0.78,1.66 0.78,2.74l-0.01 0.08c-0.53,2.64 -1.23,4.63 -2.08,5.96 -0.91,1.43 -2.01,2.15 -3.29,2.15l-0.7 0c-0.83,0 -1.59,-0.26 -2.26,-0.77 -0.64,-0.48 -1.21,-1.2 -1.69,-2.16l-0.04 -0.18c0,-1.9 0.34,-3.5 1.02,-4.81 0.67,-1.28 1.67,-2.27 2.99,-2.96 0.37,-0.57 0.78,-1 1.21,-1.3 0.49,-0.34 1.01,-0.51 1.57,-0.51l0.17 0.03zm-7.86 22.97c1.04,0.09 1.84,0.4 2.38,0.93 0.55,0.53 0.83,1.27 0.83,2.21l0 0.34c0,1.17 -2.23,8.97 -6.69,23.43 -0.82,3.49 -1.44,6.5 -1.84,9.01 -0.41,2.52 -0.62,4.56 -0.62,6.11l0.35 5.98 -1.98 1.14 -0.23 0.07c-0.74,0 -1.36,-0.48 -1.86,-1.44 -0.43,-0.83 -0.79,-2.05 -1.05,-3.66l-0.01 -0.07c0,-1.89 0.54,-5.48 1.6,-10.77 1.05,-5.18 2.61,-12 4.69,-20.45 -0.53,-0.31 -0.93,-0.73 -1.22,-1.27 -0.33,-0.63 -0.49,-1.4 -0.49,-2.33l0.02 -0.14c1.06,-2.96 2.08,-5.19 3.04,-6.68 1.03,-1.61 2.05,-2.42 3.04,-2.42l0.04 0.01zm22.63 -4.63c1.26,0.39 2.21,0.99 2.85,1.79 0.65,0.81 0.98,1.81 0.98,3.01l0 0.34c0,2.68 -1.91,9.36 -5.72,20.06 4.53,-6.97 8.91,-12.27 13.13,-15.9 4.61,-3.96 9.05,-5.94 13.31,-5.94 2.26,0 4.02,0.82 5.28,2.46 1.22,1.59 1.96,3.95 2.21,7.07l0.36 2.06c0,3.69 -0.32,7.61 -0.97,11.78 -0.64,4.16 -1.61,8.57 -2.89,13.23 -1.29,4.65 -2.45,8.14 -3.49,10.48 -1.11,2.5 -2.16,3.75 -3.14,3.75l-0.16 -0.03c-0.53,-0.19 -0.99,-0.44 -1.38,-0.76 -0.39,-0.31 -0.72,-0.69 -0.98,-1.12l-0.1 -0.16c1.23,-4.49 2.72,-11.21 4.31,-15.34 1.34,-3.13 2.35,-6.43 3.02,-9.9 0.67,-3.46 1,-7.1 1,-10.92l0 -0.34c0,-2.51 -0.36,-4.39 -1.09,-5.61 -0.68,-1.15 -1.7,-1.73 -3.06,-1.73 -6.33,0 -14.32,7.15 -23.92,21.43 -2.38,3.97 -4.22,7.7 -5.51,11.18 -1.28,3.47 -2.01,6.69 -2.18,9.66l-0.03 0.13c-0.44,1.14 -0.85,2 -1.22,2.59 -0.44,0.71 -0.88,1.07 -1.31,1.07l-1.77 0 -0.18 -0.04c-0.55,-0.22 -0.98,-0.58 -1.27,-1.06 -0.27,-0.46 -0.42,-1.03 -0.42,-1.7l0.02 -0.12c3.29,-10.98 5.75,-19.54 7.38,-25.67 1.65,-6.16 2.47,-9.87 2.47,-11.14l1.07 -8.02 -1 -1.57 -0.07 -0.22 0 -1.36c0,-1.15 0.38,-2.02 1.14,-2.61 0.73,-0.57 1.79,-0.85 3.19,-0.85l0.14 0.02zm76.35 -2.39l0.79 0.01c2.19,0.31 3.87,0.99 4.99,2.01 1.16,1.04 1.74,2.43 1.74,4.16l-0.01 0.75c-0.16,1.1 -0.54,1.94 -1.14,2.52 -0.62,0.59 -1.45,0.88 -2.49,0.88l-0.36 0c-1.07,0 -1.95,-0.39 -2.62,-1.17 -0.59,-0.68 -1.01,-1.65 -1.27,-2.9l-0.32 0c-3.78,0 -7.87,1.55 -12.26,4.66 -4.42,3.13 -9.15,7.84 -14.17,14.11 -2.33,3.58 -4.07,6.79 -5.23,9.63 -1.15,2.81 -1.73,5.25 -1.73,7.33 0.49,3.31 1.3,5.78 2.43,7.41 1.08,1.56 2.47,2.34 4.16,2.34l0.66 0c1.77,-0.47 3.69,-2.06 5.77,-4.77 2.15,-2.8 4.45,-6.75 6.9,-11.86 1.87,-4.87 3.28,-8.96 4.22,-12.26 0.91,-3.2 1.38,-5.67 1.4,-7.4 -0.56,-0.82 -0.99,-1.54 -1.28,-2.16 -0.33,-0.67 -0.49,-1.24 -0.49,-1.69l0.01 -0.09c0.26,-1.21 0.71,-2.14 1.36,-2.76 0.68,-0.65 1.54,-0.99 2.59,-0.99 1.58,0 2.79,0.88 3.64,2.63 0.79,1.64 1.26,4.07 1.41,7.28 0.12,1.72 0,3.83 0,5.59l-0.17 0.17 0.19 0.18 -3.2 39.4c-0.01,4.49 -0.68,10.58 -2.04,18.26 -1.35,7.69 -3.38,16.97 -6.07,27.81l0 0.02c-2.47,8.73 -5.88,15.3 -10.22,19.69 -4.38,4.43 -9.7,6.65 -15.96,6.65 -5.22,0 -10.56,-1.42 -16.03,-4.28 -5.45,-2.84 -11.02,-7.09 -16.72,-12.76l-0.03 -0.04c-3.9,-5.01 -6.83,-9.51 -8.78,-13.48 -1.97,-4 -2.96,-7.48 -2.96,-10.44 0,-2.84 0.97,-5.06 2.89,-6.67 1.89,-1.58 4.72,-2.55 8.47,-2.9l2.15 -0.01c2.73,0 5.47,0.53 8.22,1.56 2.74,1.03 5.49,2.58 8.26,4.62l0.18 0.13 0 0.9c0,0.37 -0.16,0.66 -0.47,0.86 -0.25,0.15 -0.6,0.24 -1.03,0.24l-0.16 -0.03c-2.91,-1.03 -5.56,-1.89 -7.96,-2.56 -2.37,-0.67 -4.5,-1.15 -6.38,-1.45 -3.16,0 -5.53,0.59 -7.09,1.75 -1.53,1.15 -2.3,2.89 -2.3,5.23 0,2.82 1.14,6.16 3.39,10.04 2.27,3.91 5.69,8.36 10.23,13.35 4.63,3.9 9.16,6.83 13.58,8.78 4.41,1.95 8.71,2.92 12.9,2.92 6.5,0 11.97,-3.51 16.4,-10.53 4.49,-7.1 7.92,-17.78 10.29,-32.04 1.65,-8.5 2.88,-17.42 3.7,-26.78 0.82,-9.35 1.22,-19.12 1.22,-29.3l0 -0.18 0.37 -0.34 0 -0.09 -0.35 -1.31 -0.02 -0.1 0 -2.99c-3.22,9.38 -6.54,16.49 -9.95,21.32 -3.68,5.21 -7.49,7.81 -11.43,7.81 -2.54,0 -4.68,-1.11 -6.41,-3.31 -1.68,-2.14 -2.98,-5.32 -3.9,-9.56l-0.01 -0.09c0,-5.78 2.14,-11.86 6.41,-18.24 4.25,-6.35 10.62,-13 19.11,-19.97l0.02 -0.01c2.48,-1.82 4.81,-3.19 6.95,-4.1 2.18,-0.92 4.19,-1.39 6.01,-1.39zm77.45 -34.39c44.82,0 74.69,9.7 89.64,29.09l0.02 0.02c1.28,1.91 2.24,3.82 2.89,5.72 0.64,1.92 0.97,3.83 0.97,5.74 0,7.89 -5.4,15.45 -16.19,22.68 -10.7,7.17 -26.74,14.04 -48.1,20.6l-0.02 0.01c-6.57,1.8 -12.95,3.16 -19.14,4.06 -6.21,0.9 -12.23,1.35 -18.07,1.35l-1.47 0c-0.52,3.44 -1.04,6.05 -1.59,7.81 -0.62,2 -1.33,3.01 -2.14,3.01l-0.45 0 -0.32 -0.13 -1.55 -1.48c0,-3.03 0.58,-6.24 0.92,-9.27 -5.78,-0.8 -10.15,-1.86 -13.1,-3.19 -3.14,-1.43 -4.72,-3.19 -4.72,-5.29l0.03 -0.16c0.3,-0.7 0.62,-1.26 0.95,-1.67 0.37,-0.46 0.77,-0.75 1.18,-0.86l0.12 -0.02 2.16 0 0.13 0.15c1.65,1.74 3.73,3.05 6.24,3.92 2.44,0.85 5.31,1.3 8.58,1.32 4.81,-16.16 8.41,-29.83 10.82,-41 2.42,-11.25 3.63,-19.98 3.63,-26.2l0 -5.66c-0.58,-0.59 -1.03,-1.16 -1.34,-1.68 -0.25,-0.44 -0.42,-0.85 -0.49,-1.24 -1.15,0.07 -2.78,0.44 -4.91,1.11 -2.42,0.75 -5.46,1.89 -9.12,3.4l-0.32 0.01c-1.49,-0.5 -2.61,-1.16 -3.37,-1.98 -0.78,-0.84 -1.18,-1.84 -1.18,-2.99 0,-1.83 1.27,-3.35 3.78,-4.56 2.39,-1.14 5.97,-2.02 10.72,-2.62l4.81 0zm10.48 6.26l0.27 0.79 0.02 0.13c0,3.61 -1.57,11.71 -4.71,24.3 -3.13,12.55 -7.82,29.59 -14.07,51.11l-0.42 1.75 3.23 0c13.56,0 27.26,-2.28 41.08,-6.84 13.82,-4.56 27.76,-11.41 41.84,-20.54 3.25,-3.03 5.68,-5.77 7.3,-8.21 1.6,-2.41 2.4,-4.51 2.4,-6.31l0 -3.63c0,-4.63 -2.78,-9.21 -8.31,-13.72 -5.6,-4.56 -14.02,-9.04 -25.24,-13.44 -6,-1.79 -12.01,-3.14 -18.02,-4.04 -6,-0.9 -12.02,-1.35 -18.04,-1.35l-7.33 0zm126.9 25.25l1.41 0c2.16,0 3.9,0.48 5.21,1.45 1.32,0.97 2.2,2.41 2.62,4.31l-0.01 0.24c-0.18,0.48 -0.37,0.86 -0.58,1.12 -0.26,0.35 -0.56,0.52 -0.9,0.52l-1.62 0 -0.13 -0.15c-0.96,-1.09 -1.92,-1.91 -2.87,-2.44 -0.92,-0.52 -1.85,-0.79 -2.78,-0.79 -4.93,0 -9.77,1.45 -14.51,4.33 -4.77,2.9 -9.45,7.26 -14.03,13.07 -3.73,5.46 -6.53,10.9 -8.39,16.33 -1.87,5.42 -2.8,10.83 -2.8,16.22l-0.01 0.1c-0.33,1.41 -0.82,2.48 -1.45,3.21 -0.68,0.77 -1.51,1.16 -2.51,1.16l-0.17 -0.03c-0.9,-0.36 -1.58,-0.83 -2.04,-1.39 -0.47,-0.58 -0.71,-1.26 -0.71,-2.04l0 -0.35c0,-2.18 0.57,-6.58 1.69,-13.17 1.12,-6.51 2.78,-15.15 4.98,-25.9l-0.32 -0.31 0 -0.52c0,-0.65 0.23,-1.29 0.7,-1.93 0.44,-0.61 1.09,-1.21 1.96,-1.8l0.26 -0.08 2.46 0 0.21 0.06c0.78,0.39 1.36,0.91 1.75,1.54 0.4,0.63 0.6,1.38 0.6,2.21 0,0.78 -0.48,2.58 -1.44,5.4 -0.61,1.8 -1.42,4.04 -2.44,6.71 2.71,-5.09 5.89,-9.54 9.55,-13.36 4.73,-4.95 10.27,-8.82 16.61,-11.63l0.06 -0.03c2.42,-0.67 4.43,-1.19 6.02,-1.54 1.63,-0.35 2.83,-0.52 3.62,-0.52zm22.31 11.08l1.79 0c1.74,0.18 3.06,0.61 3.94,1.28 0.93,0.71 1.4,1.67 1.4,2.87l0 1.36c0,1.72 -1.96,4.4 -5.86,8.03 -3.83,3.56 -9.57,8.1 -17.21,13.61l-0.04 0.02c-2.25,1.28 -4.47,2.37 -6.67,3.29 -2.11,0.88 -4.19,1.59 -6.23,2.11l-0.3 1.37c0.01,1.62 0.53,2.98 1.56,4.06 1.05,1.12 2.65,1.98 4.79,2.57l3.09 0.34 1.07 0c0.93,0 2.56,-0.19 4.88,-0.58 2.35,-0.39 5.38,-0.98 9.1,-1.77l0.29 -0.06 0.89 1.24 0.08 0.25 0 1.24 -0.2 0.12c-2.19,1.39 -4.64,2.43 -7.33,3.11 -2.68,0.69 -5.62,1.04 -8.8,1.04 -3.51,0 -6.46,-0.68 -8.82,-2.02 -2.37,-1.34 -4.16,-3.36 -5.34,-6.04l-0.03 -0.11 -0.33 -2.36 0 -0.1 0.28 -2.6 -0.04 -0.01c-0.66,-0.32 -1.16,-0.74 -1.5,-1.26 -0.34,-0.52 -0.52,-1.13 -0.52,-1.83 0,-1.28 0.46,-2.33 1.38,-3.15 0.89,-0.79 2.2,-1.34 3.92,-1.66l0.23 -0.04 0.14 0.13c5.58,-8.04 10.87,-14.11 15.86,-18.17 5.14,-4.19 9.99,-6.28 14.53,-6.28zm-25.65 25.25c3.61,-0.83 7.09,-2.2 10.41,-4.11 3.49,-2.01 6.82,-4.61 9.99,-7.82l0.03 -0.03c2.33,-1.9 4.07,-3.54 5.22,-4.93 0.96,-1.15 1.51,-2.11 1.63,-2.87l-2.39 -0.56c-3.44,0.01 -7.17,1.59 -11.19,4.73 -4.07,3.18 -8.43,7.96 -13.05,14.34l-0.65 1.25zm71.74 -26.78c2.34,0 4.41,0.71 6.2,2.13 1.75,1.4 3.24,3.49 4.44,6.27l0.03 0.1c0.12,0.79 0.42,2.01 0.36,2.79 -0.28,2.66 -0.84,4.67 -1.7,6.02 -0.9,1.44 -2.13,2.16 -3.68,2.16l-0.09 -0.01c-1.26,-0.25 -2.22,-0.68 -2.87,-1.31 -0.67,-0.64 -1.01,-1.47 -1.01,-2.49l0.05 -0.18 2.75 -5.34c-0.02,-1.56 -0.56,-2.77 -1.6,-3.62 -1.1,-0.9 -2.77,-1.42 -5.01,-1.59 -3.53,0 -7.42,1.66 -11.68,4.97 -4.31,3.35 -8.98,8.4 -14.01,15.13 -2.22,3.74 -3.88,7.04 -4.98,9.88 -1.1,2.82 -1.65,5.2 -1.65,7.13l0 0.34c0,0.91 0.19,1.71 0.56,2.38 0.36,0.63 0.88,1.16 1.58,1.58l0.6 0c3.32,0 7.14,-2.46 11.45,-7.37 4.38,-4.99 9.22,-12.47 14.54,-22.45 0.71,-2.82 1.42,-4.94 2.14,-6.37 0.79,-1.57 1.63,-2.36 2.52,-2.36l1.24 0 1.54 1.48 0.14 0.31 0 1.01 -0.03 0.13c-1.4,4.18 -2.46,7.79 -3.17,10.82 -0.69,3.01 -1.04,5.45 -1.04,7.31 0,3.07 0.66,5.89 1.98,8.48 1.32,2.58 3.32,4.95 5.98,7.09l0.16 0.13 0 1.39 -1.19 1.13 -0.32 0.13 -0.36 0c-1.09,0 -2.25,-0.49 -3.45,-1.46 -1.15,-0.93 -2.36,-2.32 -3.63,-4.16l-0.01 -0.02c-1.19,-1.99 -2.09,-4.09 -2.69,-6.26 -0.59,-2.18 -0.89,-4.45 -0.89,-6.8l0 -1.32c-4.81,7.83 -9.19,13.75 -13.13,17.75 -4.15,4.2 -7.85,6.31 -11.09,6.31l-1.77 0c-2.98,0 -5.02,-2.25 -6.06,-6.74l-0.01 -0.44c0,-5.07 1.72,-10.6 5.17,-16.59 3.42,-5.94 8.55,-12.34 15.4,-19.2l0.04 -0.03c3.43,-2.74 6.66,-4.79 9.68,-6.17 3.06,-1.38 5.91,-2.07 8.57,-2.07zm83.19 -22.39l1.13 0.01c1.38,0.21 2.44,0.66 3.15,1.35 0.74,0.7 1.1,1.64 1.1,2.79l0 1.7c0,3.02 -1.86,8.61 -5.58,16.78 -3.71,8.12 -9.26,18.81 -16.66,32.09 -2.41,5.15 -4.26,9.75 -5.54,13.78 -1.27,4 -2,7.44 -2.17,10.32l0.66 1.95 0.01 0.25c-0.25,0.87 -0.65,1.53 -1.18,1.98 -0.56,0.47 -1.26,0.7 -2.08,0.7l-0.69 0 -0.18 -0.04c-0.68,-0.28 -1.19,-0.73 -1.54,-1.31 -0.33,-0.58 -0.5,-1.29 -0.5,-2.11l0 -0.04c0.36,-3.44 1.7,-8.07 4,-13.91 2.3,-5.81 5.56,-12.84 9.79,-21.07l0.01 -0.01c5.63,-10.01 9.86,-18.27 12.67,-24.79 2.8,-6.48 4.21,-11.23 4.21,-14.25 0,-0.47 -0.1,-0.84 -0.28,-1.1 -0.16,-0.22 -0.39,-0.38 -0.7,-0.47 -4.64,1.09 -9.54,3.94 -14.67,8.54 -5.2,4.65 -10.64,11.09 -16.31,19.31 -2.57,3.98 -5.22,8.98 -7.91,15 -2.7,6.02 -5.46,13.04 -8.26,21.07l-0.14 0.19c-0.46,0.37 -0.92,0.65 -1.38,0.84 -0.47,0.2 -0.93,0.3 -1.37,0.3l-0.2 -0.05c-0.88,-0.42 -1.54,-0.89 -1.99,-1.38 -0.48,-0.53 -0.72,-1.1 -0.72,-1.71l0.01 -0.11c2.22,-8.03 3.9,-14.35 5.02,-18.97 0.92,-3.79 1.46,-6.41 1.62,-7.88 -2.86,1.67 -5.5,4.2 -7.9,7.58 -2.62,3.68 -4.97,8.37 -7.05,14.06 -0.71,3.75 -1.57,6.57 -2.59,8.46 -1.07,2.02 -2.35,3.03 -3.83,3.03l-1.05 0 -0.22 -0.06c-0.64,-0.36 -1.14,-0.77 -1.47,-1.21 -0.35,-0.48 -0.53,-0.99 -0.53,-1.53l0.02 -0.12c2.11,-6.54 3.69,-12.59 4.74,-18.14 1.06,-5.56 1.58,-10.63 1.58,-15.21l0 -0.73c-0.31,-0.17 -0.56,-0.42 -0.73,-0.76 -0.21,-0.4 -0.32,-0.92 -0.32,-1.57l0 -0.31c0,-1.04 0.38,-1.88 1.12,-2.53 0.71,-0.62 1.76,-1.04 3.13,-1.27l0.08 -0.01c1.09,0 1.98,0.36 2.65,1.06 0.65,0.68 1.09,1.68 1.31,2.99l0.01 0.07c0,1.73 -0.27,3.96 -0.8,6.69 -0.4,2.07 -0.96,4.43 -1.66,7.09 0.82,-1.44 1.93,-2.99 3.34,-4.65 2.31,-2.72 5.41,-5.75 9.29,-9.1l0.18 -0.09 2.46 -0.67 0.12 -0.02 1.42 0 0.23 0.07c0.78,0.46 1.37,1.04 1.76,1.72 0.39,0.69 0.59,1.48 0.59,2.37l-1.59 7.1c1.52,-3.38 3.64,-7.15 6.37,-11.3 3.42,-5.2 7.78,-10.99 13.1,-17.39l0.04 -0.04c5.26,-5.08 9.79,-8.9 13.57,-11.45 3.84,-2.58 6.94,-3.88 9.3,-3.88zm23 11c2.77,0.46 4.87,1.31 6.29,2.55 1.45,1.27 2.17,2.93 2.17,4.97 0,2.21 -0.81,4.77 -2.43,7.66 -1.6,2.84 -3.99,6.02 -7.18,9.53l-0.39 0.37 -0.31 0.13 -1.75 0c-1.2,0 -2.12,-0.37 -2.74,-1.09 -0.6,-0.7 -0.89,-1.73 -0.89,-3.07 0,-0.69 2.5,-3.38 7.5,-8.06 0.91,-1.35 1.6,-2.47 2.05,-3.34 0.45,-0.86 0.67,-1.45 0.67,-1.78 0,-0.76 -0.24,-1.34 -0.73,-1.77 -0.51,-0.44 -1.29,-0.73 -2.36,-0.86l-1.39 0c-1.91,0 -3.94,0.68 -6.1,2.04 -2.19,1.39 -4.49,3.47 -6.92,6.24 -0.69,1 -1.2,1.94 -1.55,2.82 -0.33,0.85 -0.5,1.64 -0.5,2.35l0 0.66c0,1.56 1.09,3.72 3.27,6.47 2.22,2.8 5.56,6.18 10,10.12l0.06 0.06c2.11,2.78 3.71,5.32 4.78,7.6 1.08,2.32 1.62,4.38 1.62,6.19 0,2.87 -1.47,5.42 -4.41,7.65 -2.86,2.18 -7.13,4.05 -12.82,5.6 -0.88,0.15 -3.2,0.37 -4.06,0.36 -2.53,-0.32 -4.44,-0.86 -5.73,-1.62 -1.37,-0.82 -2.06,-1.88 -2.06,-3.19l0 -0.69 0.13 -0.3 1.54 -1.49 1.6 0 0.28 0.09c1.02,0.77 1.98,1.34 2.88,1.72 0.88,0.37 1.71,0.56 2.47,0.56 3.24,0 6.1,-0.66 8.55,-1.97 2.44,-1.31 4.51,-3.27 6.19,-5.88l0.33 -1.23c-0.02,-2.36 -1.34,-5.32 -3.97,-8.88 -2.69,-3.64 -6.72,-7.89 -12.1,-12.75l-0.05 -0.05c-1.09,-1.4 -1.91,-2.8 -2.45,-4.18 -0.55,-1.41 -0.83,-2.81 -0.83,-4.19l0 -0.66c0,-3.41 1.42,-6.63 4.26,-9.64 2.81,-2.98 7,-5.76 12.57,-8.35l0.12 -0.04 4.24 -0.66 0.15 0zm19.29 49.62l1.15 0.01c1.63,0.32 2.87,0.98 3.7,1.95 0.84,0.98 1.26,2.28 1.26,3.87l-0.01 0.08c-0.41,2 -1.14,3.51 -2.2,4.53 -1.09,1.04 -2.49,1.56 -4.22,1.56 -1.43,0 -2.57,-0.6 -3.42,-1.79 -0.81,-1.13 -1.35,-2.79 -1.63,-5l0 -0.12c0.32,-1.68 0.92,-2.94 1.8,-3.79 0.91,-0.87 2.1,-1.3 3.57,-1.3zm19.23 0l1.14 0.01c1.63,0.32 2.87,0.98 3.7,1.95 0.84,0.98 1.26,2.28 1.26,3.87l-0.01 0.08c-0.41,2 -1.14,3.51 -2.2,4.53 -1.09,1.04 -2.49,1.56 -4.22,1.56 -1.42,0 -2.56,-0.6 -3.42,-1.79 -0.81,-1.13 -1.35,-2.79 -1.63,-5l0 -0.12c0.32,-1.68 0.92,-2.94 1.8,-3.79 0.91,-0.87 2.1,-1.3 3.58,-1.3zm19.22 0l1.14 0.01c1.63,0.32 2.87,0.98 3.7,1.95 0.84,0.98 1.26,2.28 1.26,3.87l-0.01 0.08c-0.41,2 -1.14,3.51 -2.2,4.53 -1.09,1.04 -2.49,1.56 -4.22,1.56 -1.42,0 -2.56,-0.6 -3.42,-1.79 -0.81,-1.13 -1.35,-2.79 -1.63,-5l0 -0.12c0.32,-1.68 0.92,-2.94 1.8,-3.79 0.91,-0.87 2.1,-1.3 3.58,-1.3zm19.22 0l1.14 0.01c1.64,0.32 2.87,0.98 3.71,1.96 0.83,0.97 1.25,2.27 1.25,3.86l-0.01 0.08c-0.41,2 -1.14,3.51 -2.2,4.53 -1.08,1.04 -2.49,1.56 -4.22,1.56 -1.42,0 -2.56,-0.6 -3.42,-1.79 -0.81,-1.13 -1.35,-2.79 -1.63,-5l0 -0.12c0.32,-1.68 0.92,-2.94 1.8,-3.79 0.91,-0.87 2.1,-1.3 3.58,-1.3zm19.22 0l1.14 0.01c1.64,0.32 2.87,0.98 3.71,1.96 0.83,0.97 1.25,2.27 1.25,3.86l-0.01 0.08c-0.4,2 -1.14,3.51 -2.2,4.53 -1.08,1.04 -2.49,1.56 -4.22,1.56 -1.42,0 -2.56,-0.6 -3.42,-1.79 -0.81,-1.13 -1.35,-2.79 -1.63,-5l0 -0.12c0.32,-1.68 0.92,-2.94 1.8,-3.79 0.91,-0.87 2.1,-1.3 3.58,-1.3z"/>
   <path class="fil1" d="M284.32 544.06l-130.79 0 0 -264.77c0,-53.07 23.19,-94.15 69.7,-122.65 41.21,-25.25 93.2,-37.74 159.75,-37.74l207.52 0 -78.99 109.68 -182.46 0c-23.9,0 -43.46,19.52 -43.46,43.39 0,23.86 19.56,43.39 43.46,43.39l119.97 0 -33.55 46.58 -86.42 0c-23.8,0 -43.46,19.44 -43.46,43.39 0,23.97 19.68,43.39 43.46,43.39l23.93 0 -68.66 95.34z"/>
   <path class="fil2" d="M1026.95 544.06l-130.23 0 -164.72 -228.71 118.23 0c23.91,0 43.46,-19.52 43.46,-43.38 0,-23.87 -19.56,-43.39 -43.46,-43.39l-180.73 0 -79 -109.68 207.49 0c66.56,0 118.55,12.49 159.77,37.74 46.52,28.5 69.71,69.58 69.71,122.65 0,54.2 -42.27,117.06 -92.62,136.8l92.1 127.97z"/>
   <polygon class="fil3" points="885.75,544.06 590.48,166.14 295.25,544.06 590.48,319.96 "/>
   <rect class="fil1" x="537.36" y="415.49" width="47.24" height="47.24"/>
   <rect class="fil1" transform="matrix(4.21454E-14 -1.59135 1.59132 4.21461E-14 537.357 521.782)" width="29.69" height="29.69"/>
   <rect class="fil1" transform="matrix(4.21454E-14 -1.59135 1.59132 4.21461E-14 596.407 521.782)" width="29.69" height="29.69"/>
   <rect class="fil1" x="596.41" y="415.49" width="47.24" height="47.24"/>
   <path class="fil2" d="M155.79 567.68l869.42 0c1.25,0 2.26,1.03 2.26,2.3l0 160.74c0,1.27 -1.01,2.3 -2.26,2.3l-869.42 0c-1.25,0 -2.26,-1.03 -2.26,-2.3l0 -160.74c0,-1.27 1.01,-2.3 2.26,-2.3zm867.16 4.6l-864.9 0 0 156.14 864.9 0 0 -156.14z"/>
   <rect class="fil3" x="549.18" y="602.49" width="436.97" height="94.48"/>
   <g>
    <polygon class="fil2" points="475.7,602.49 485.53,602.49 527.25,649.6 527.25,602.49 549.18,602.49 549.18,696.97 539.35,696.97 497.52,649.73 497.52,696.97 475.7,696.97 "/>
    <polygon class="fil2" points="400.43,696.97 400.43,602.49 460.13,602.49 460.13,624.5 422.25,624.5 422.25,638.73 451.62,638.73 451.62,660.74 422.25,660.74 422.25,674.96 460.01,674.96 460.01,696.97 "/>
    <polygon class="fil2" points="342.57,696.97 326.13,657.75 309.8,696.97 302.6,696.97 265.26,602.49 288.43,602.49 306.8,648.47 322.52,611.64 329.85,611.64 345.57,648.47 363.94,602.49 387.11,602.49 349.77,696.97 "/>
    <polygon class="fil2" points="194.88,696.96 194.88,602.5 254.57,602.5 254.57,624.51 216.7,624.51 216.7,638.73 246.06,638.73 246.06,660.74 216.7,660.74 216.7,674.96 254.45,674.96 254.45,696.96 "/>
   </g>
   <path class="fil4" d="M580.13 645.27l1.89 0c5.5,0 9.15,-0.67 10.95,-2 1.81,-1.33 2.72,-3.69 2.72,-7.08 0,-3.66 -0.97,-6.23 -2.91,-7.74 -1.94,-1.5 -5.53,-2.24 -10.76,-2.24l-1.89 0 0 19.06zm-0.63 8.37l0 29.76 -9.74 0 0 -66.49 14.48 0c4.25,0 7.54,0.29 9.9,0.87 2.34,0.57 4.33,1.51 5.99,2.85 1.98,1.61 3.5,3.69 4.59,6.23 1.07,2.54 1.61,5.31 1.61,8.35 0,5.32 -1.24,9.49 -3.71,12.51 -2.48,3.01 -6.13,4.82 -10.96,5.42l22 30.26 -11.71 0 -21.28 -29.76 -1.17 0zm40.33 29.76l0 -66.49 35.67 0 0 9.2 -25.3 0 0 16.65 25.3 0 0 9.48 -25.3 0 0 21.49 25.3 0 0 9.67 -35.67 0zm61.08 -26.13l17.82 0 -6.56 -15.16c-0.37,-0.96 -0.77,-2.08 -1.18,-3.33 -0.4,-1.26 -0.81,-2.65 -1.22,-4.21 -0.34,1.46 -0.71,2.81 -1.11,4.07 -0.39,1.25 -0.79,2.41 -1.2,3.47l-6.55 15.16zm28.73 26.13l-7.25 -17.11 -25.33 0 -7.42 17.11 -10.91 0 30.95 -69.1 30.92 69.1 -10.96 0zm16.97 0l0 -66.49 10.37 0 0 56.82 23.25 0 0 9.67 -33.62 0zm57.8 -57.29l0 57.29 -10.37 0 0 -57.29 -16.99 0 0 -9.2 44.26 0 0 9.2 -16.9 0zm76.37 24.18c0,-3.36 -0.6,-6.56 -1.78,-9.58 -1.17,-3.02 -2.87,-5.72 -5.08,-8.07 -2.16,-2.34 -4.65,-4.12 -7.48,-5.38 -2.85,-1.26 -5.84,-1.89 -8.97,-1.89 -3.14,0 -6.14,0.62 -8.98,1.86 -2.84,1.24 -5.37,3.04 -7.57,5.41 -2.21,2.32 -3.91,5 -5.07,8.03 -1.16,3.02 -1.74,6.23 -1.74,9.62 0,3.36 0.58,6.54 1.74,9.53 1.16,2.99 2.86,5.68 5.07,8.03 2.2,2.37 4.72,4.17 7.55,5.41 2.82,1.24 5.83,1.86 9,1.86 3.12,0 6.07,-0.62 8.88,-1.86 2.8,-1.24 5.34,-3.04 7.57,-5.41 2.21,-2.35 3.91,-5.04 5.08,-8.04 1.18,-3.03 1.78,-6.19 1.78,-9.52zm10.81 0c0,4.73 -0.84,9.19 -2.54,13.39 -1.72,4.22 -4.19,7.97 -7.45,11.27 -3.28,3.3 -6.99,5.83 -11.13,7.58 -4.13,1.75 -8.47,2.63 -13,2.63 -4.6,0 -8.98,-0.88 -13.17,-2.65 -4.17,-1.78 -7.85,-4.29 -11.06,-7.56 -3.26,-3.3 -5.73,-7.04 -7.42,-11.22 -1.68,-4.17 -2.53,-8.65 -2.53,-13.44 0,-4.76 0.85,-9.24 2.53,-13.44 1.69,-4.21 4.16,-7.98 7.42,-11.31 3.27,-3.3 6.96,-5.81 11.09,-7.53 4.13,-1.72 8.51,-2.59 13.14,-2.59 4.59,0 8.94,0.87 13.07,2.59 4.11,1.72 7.81,4.23 11.06,7.53 3.26,3.36 5.73,7.16 7.45,11.38 1.7,4.23 2.54,8.67 2.54,13.37zm22.28 -5.02l1.89 0c5.5,0 9.15,-0.67 10.96,-2 1.8,-1.33 2.71,-3.69 2.71,-7.08 0,-3.66 -0.97,-6.23 -2.91,-7.74 -1.93,-1.5 -5.52,-2.24 -10.76,-2.24l-1.89 0 0 19.06zm-0.62 8.37l0 29.76 -9.75 0 0 -66.49 14.49 0c4.24,0 7.53,0.29 9.89,0.87 2.34,0.57 4.34,1.51 5.99,2.85 1.98,1.61 3.5,3.69 4.59,6.23 1.07,2.54 1.61,5.31 1.61,8.35 0,5.32 -1.24,9.49 -3.71,12.51 -2.48,3.01 -6.13,4.82 -10.95,5.42l21.99 30.26 -11.71 0 -21.28 -29.76 -1.16 0zm36.65 16.44l8.29 -3.98c0.79,2.96 2.23,5.22 4.33,6.77 2.09,1.57 4.77,2.34 8.04,2.34 3.1,0 5.54,-0.9 7.37,-2.68 1.82,-1.78 2.73,-4.17 2.73,-7.16 0,-3.9 -3.12,-7.39 -9.36,-10.45 -0.88,-0.44 -1.55,-0.78 -2.01,-0.99 -7.05,-3.58 -11.74,-6.8 -14.08,-9.7 -2.34,-2.9 -3.52,-6.43 -3.52,-10.6 0,-5.42 1.77,-9.81 5.31,-13.17 3.53,-3.37 8.18,-5.04 13.91,-5.04 4.71,0 8.66,0.94 11.84,2.83 3.17,1.9 5.36,4.61 6.58,8.14l-8.1 4.37c-1.29,-2.09 -2.69,-3.62 -4.22,-4.58 -1.54,-0.98 -3.29,-1.46 -5.28,-1.46 -2.78,0 -5.02,0.76 -6.66,2.28 -1.65,1.5 -2.47,3.53 -2.47,6.07 0,4 3.62,7.74 10.85,11.18 0.55,0.28 0.98,0.49 1.31,0.63 6.32,3.04 10.65,6 13.01,8.88 2.35,2.9 3.53,6.51 3.53,10.84 0,6.29 -1.91,11.3 -5.72,15 -3.82,3.7 -8.97,5.56 -15.47,5.56 -5.44,0 -9.9,-1.3 -13.38,-3.9 -3.47,-2.61 -5.75,-6.33 -6.83,-11.18z"/>
  </g>
 </g>
</svg>
