<?xml version="1.0" encoding="UTF-8"?>
<!DOCTYPE svg PUBLIC "-//W3C//DTD SVG 1.1//EN" "http://www.w3.org/Graphics/SVG/1.1/DTD/svg11.dtd">
<!-- Creator: CorelDRAW 2020 (64-Bit) -->
<svg xmlns="http://www.w3.org/2000/svg" xml:space="preserve" width="874px" height="827px" version="1.1" style="shape-rendering:geometricPrecision; text-rendering:geometricPrecision; image-rendering:optimizeQuality; fill-rule:evenodd; clip-rule:evenodd"
viewBox="0 0 874 826.76"
 xmlns:xlink="http://www.w3.org/1999/xlink"
 xmlns:xodm="http://www.corel.com/coreldraw/odm/2003">
 <defs>
  <style type="text/css">
   <![CDATA[
    .fil1 {fill:#FEFEFE}
    .fil0 {fill:#FEFEFE;fill-rule:nonzero}
   ]]>
  </style>
 </defs>
 <g id="Layer_x0020_1">
  <metadata id="CorelCorpID_0Corel-Layer"/>
  <g id="_2527568047024">
   <path class="fil0" d="M32.43 656.92c44.82,0 74.69,9.69 89.64,29.08l0.01 0.03c1.29,1.9 2.25,3.81 2.89,5.72 0.65,1.92 0.98,3.83 0.98,5.74 0,7.89 -5.4,15.45 -16.19,22.68 -10.71,7.17 -26.74,14.04 -48.11,20.6l-0.01 0.01c-6.57,1.81 -12.95,3.16 -19.14,4.06 -6.21,0.9 -12.24,1.35 -18.08,1.35l-1.47 0c-0.51,3.44 -1.04,6.05 -1.58,7.81 -0.62,2.01 -1.34,3.01 -2.15,3.01l-0.45 0 -0.32 -0.12 -1.55 -1.49c0,-3.03 0.58,-6.24 0.93,-9.27 -5.79,-0.79 -10.16,-1.86 -13.1,-3.19 -3.15,-1.43 -4.73,-3.19 -4.73,-5.29l0.03 -0.16c0.3,-0.7 0.62,-1.26 0.95,-1.67 0.37,-0.46 0.77,-0.75 1.18,-0.86l0.13 -0.02 2.15 0 0.13 0.15c1.65,1.74 3.73,3.05 6.24,3.92 2.45,0.86 5.31,1.3 8.58,1.32 4.81,-16.16 8.42,-29.83 10.82,-41.01 2.42,-11.25 3.63,-19.98 3.63,-26.19l0 -5.66c-0.58,-0.6 -1.03,-1.16 -1.34,-1.69 -0.25,-0.43 -0.41,-0.84 -0.48,-1.24 -1.15,0.08 -2.79,0.45 -4.91,1.11 -2.43,0.76 -5.47,1.89 -9.13,3.4l-0.32 0.01c-1.49,-0.49 -2.61,-1.16 -3.37,-1.97 -0.78,-0.84 -1.17,-1.84 -1.17,-2.99 0,-1.84 1.26,-3.36 3.77,-4.56 2.4,-1.15 5.98,-2.02 10.72,-2.62l4.82 0zm10.48 6.25l0.26 0.8 0.02 0.13c0,3.61 -1.57,11.7 -4.7,24.29 -3.13,12.56 -7.83,29.6 -14.08,51.12l-0.42 1.75 3.23 0c13.57,0 27.26,-2.28 41.09,-6.84 13.81,-4.56 27.76,-11.41 41.84,-20.54 3.24,-3.03 5.68,-5.77 7.29,-8.21 1.6,-2.41 2.4,-4.51 2.4,-6.31l0 -3.63c0,-4.63 -2.77,-9.21 -8.3,-13.72 -5.61,-4.56 -14.02,-9.05 -25.25,-13.44 -5.99,-1.8 -12,-3.15 -18.01,-4.05 -6,-0.89 -12.02,-1.35 -18.05,-1.35l-7.32 0zm114.14 36.34l1.79 0c1.74,0.18 3.06,0.61 3.94,1.28 0.93,0.71 1.4,1.67 1.4,2.87l0 1.36c0,1.72 -1.96,4.4 -5.86,8.03 -3.83,3.56 -9.57,8.1 -17.21,13.61l-0.04 0.02c-2.26,1.28 -4.48,2.38 -6.67,3.29 -2.11,0.88 -4.19,1.58 -6.23,2.11l-0.3 1.37c0.01,1.62 0.53,2.98 1.56,4.07 1.05,1.11 2.64,1.97 4.78,2.56l3.1 0.34 1.06 0c0.95,0 2.6,-0.19 4.94,-0.58 2.34,-0.4 5.36,-0.99 9.04,-1.77l0.3 -0.06 0.89 1.25 0.08 0.24 0 1.24 -0.2 0.13c-2.2,1.38 -4.64,2.42 -7.33,3.11 -2.68,0.68 -5.62,1.03 -8.8,1.03 -3.51,0 -6.46,-0.67 -8.82,-2.01 -2.38,-1.35 -4.16,-3.37 -5.34,-6.05l-0.03 -0.11 -0.33 -2.36 0.28 -2.7 -0.04 -0.01c-0.66,-0.32 -1.16,-0.74 -1.5,-1.26 -0.35,-0.52 -0.52,-1.13 -0.52,-1.83 0,-1.28 0.46,-2.33 1.38,-3.15 0.88,-0.79 2.19,-1.34 3.92,-1.66l0.23 -0.04 0.14 0.13c5.58,-8.05 10.87,-14.11 15.86,-18.18 5.14,-4.18 9.99,-6.27 14.53,-6.27zm-25.66 25.25c3.62,-0.83 7.09,-2.2 10.42,-4.11 3.49,-2.01 6.82,-4.61 9.98,-7.82l0.04 -0.03c2.32,-1.9 4.07,-3.55 5.22,-4.93 0.96,-1.15 1.5,-2.11 1.63,-2.87l-2.4 -0.56c-3.43,0.01 -7.16,1.59 -11.19,4.73 -4.07,3.18 -8.42,7.96 -13.05,14.34l-0.65 1.25zm62.42 -86.98c2.48,0 4.73,0.77 6.75,2.3 1.99,1.51 3.75,3.76 5.26,6.75l0.04 0.1 1.09 5.16c0,3.53 -0.56,7.64 -1.69,12.35 -1.12,4.69 -2.81,9.99 -5.04,15.88l-0.12 0.17c-0.67,0.58 -1.29,1.02 -1.85,1.32 -0.6,0.31 -1.15,0.47 -1.64,0.47l-0.15 -0.03c-1.12,-0.38 -1.97,-0.89 -2.55,-1.5 -0.6,-0.65 -0.91,-1.41 -0.91,-2.28l0.05 -0.18 7.38 -15.17c0.45,-1.56 0.8,-3.2 1.03,-4.92 0.24,-1.72 0.36,-3.54 0.36,-5.44 0,-2.44 -0.59,-4.44 -1.77,-6 -1.18,-1.55 -2.95,-2.68 -5.32,-3.37l-0.99 -0.33c-1.88,0.05 -3.8,2.06 -5.75,6.02 -2.04,4.13 -4.07,10.35 -6.07,18.65 -1.66,11.94 -2.9,22.3 -3.72,31.06 -0.82,8.76 -1.24,15.97 -1.24,21.61l-0.29 2.41 0.64 0.21c3.85,0.01 6.96,0.32 9.33,0.95 2.46,0.64 4.16,1.62 5.08,2.94l0.07 0.24 0 1.21 -1.72 1.65 -5.12 -1.07 -1.37 0c-2.55,0 -4.45,0.14 -5.71,0.41 -1.06,0.23 -1.6,0.52 -1.6,0.86 0,5 -0.36,8.76 -1.08,11.28 -0.76,2.69 -1.97,4.04 -3.61,4.04l-0.87 0 -2.04 -1.96 0 -2.31 0.44 0c0.28,0 0.66,-0.87 1.13,-2.63 0.5,-1.85 1.01,-4.59 1.54,-8.23l-1.16 0.23 -0.18 0c-1.26,-0.25 -2.22,-0.69 -2.87,-1.31 -0.67,-0.65 -1.01,-1.48 -1.01,-2.49 0,-1.12 0.56,-2.03 1.7,-2.74 0.99,-0.61 2.41,-1.07 4.29,-1.35 0,-5.42 0.5,-13.08 1.51,-23 1,-9.93 2.51,-22.11 4.51,-36.53l0.01 -0.05c2.14,-8.38 4.46,-14.68 6.95,-18.89 2.55,-4.32 5.31,-6.49 8.28,-6.49zm26.31 37.58c1.03,0.41 1.81,0.98 2.33,1.73 0.52,0.74 0.78,1.65 0.78,2.74l-0.01 0.08c-0.53,2.64 -1.23,4.62 -2.08,5.96 -0.91,1.43 -2.01,2.15 -3.29,2.15l-0.7 0c-0.83,0 -1.59,-0.26 -2.26,-0.77 -0.65,-0.48 -1.21,-1.21 -1.69,-2.16l-0.05 -0.19c0,-1.89 0.35,-3.5 1.02,-4.8 0.67,-1.29 1.67,-2.28 3,-2.97 0.37,-0.56 0.77,-0.99 1.21,-1.29 0.48,-0.34 1.01,-0.51 1.57,-0.51l0.17 0.03zm-7.86 22.97c1.04,0.09 1.84,0.4 2.38,0.93 0.55,0.53 0.83,1.27 0.83,2.21l0 0.34c0,1.17 -2.24,8.97 -6.7,23.43 -0.82,3.49 -1.43,6.5 -1.84,9.01 -0.4,2.52 -0.61,4.56 -0.61,6.11l0.35 5.98 -1.98 1.14 -0.23 0.07c-0.74,0 -1.37,-0.48 -1.86,-1.44 -0.44,-0.82 -0.79,-2.05 -1.05,-3.66l-0.01 -0.06c0,-1.9 0.54,-5.49 1.6,-10.78 1.05,-5.18 2.61,-12 4.68,-20.46 -0.52,-0.3 -0.93,-0.72 -1.21,-1.26 -0.33,-0.63 -0.49,-1.41 -0.49,-2.34l0.02 -0.14c1.06,-2.95 2.08,-5.18 3.04,-6.67 1.03,-1.61 2.05,-2.42 3.04,-2.42l0.04 0.01zm22.63 -4.63c1.26,0.39 2.21,0.98 2.85,1.78 0.65,0.82 0.98,1.82 0.98,3.01l0 0.35c0,1.42 -0.53,3.96 -1.6,7.6 -0.95,3.25 -2.32,7.41 -4.13,12.46 4.54,-6.97 8.92,-12.27 13.14,-15.9 4.62,-3.96 9.05,-5.94 13.32,-5.94 2.25,0 4.01,0.82 5.27,2.46 1.23,1.59 1.96,3.95 2.21,7.07l0.37 2.06c0,3.69 -0.33,7.61 -0.97,11.78 -0.65,4.16 -1.62,8.57 -2.9,13.23 -1.28,4.65 -2.45,8.15 -3.49,10.48 -1.11,2.5 -2.16,3.75 -3.14,3.75l-0.16 -0.02c-0.52,-0.19 -0.98,-0.45 -1.37,-0.77 -0.4,-0.31 -0.72,-0.69 -0.99,-1.12l-0.1 -0.16c1.23,-4.48 2.72,-11.21 4.31,-15.34 1.34,-3.13 2.35,-6.43 3.02,-9.9 0.67,-3.46 1.01,-7.1 1.01,-10.92l0 -0.35c0,-2.5 -0.37,-4.38 -1.09,-5.6 -0.68,-1.15 -1.71,-1.73 -3.07,-1.73 -6.33,0 -14.32,7.15 -23.92,21.43 -2.38,3.97 -4.22,7.7 -5.51,11.18 -1.28,3.47 -2.01,6.69 -2.18,9.67l-0.03 0.12c-0.44,1.14 -0.85,2.01 -1.22,2.59 -0.44,0.71 -0.88,1.07 -1.31,1.07l-1.77 0 -0.18 -0.04c-0.55,-0.22 -0.98,-0.58 -1.27,-1.06 -0.27,-0.46 -0.42,-1.03 -0.42,-1.7l0.02 -0.12c3.29,-10.97 5.75,-19.53 7.38,-25.66 1.65,-6.16 2.47,-9.88 2.47,-11.16l1.07 -8.01 -1 -1.57 -0.07 -0.23 0 -1.35c0,-1.15 0.38,-2.02 1.14,-2.61 0.73,-0.57 1.79,-0.85 3.19,-0.85l0.14 0.02zm56.25 -18.34c1.03,0.41 1.81,0.98 2.33,1.73 0.52,0.74 0.78,1.65 0.78,2.74l-0.01 0.08c-0.53,2.63 -1.23,4.62 -2.08,5.96 -0.91,1.43 -2.01,2.15 -3.29,2.15l-0.7 0c-0.83,0 -1.59,-0.26 -2.26,-0.77 -0.64,-0.48 -1.21,-1.2 -1.69,-2.16l-0.04 -0.19c0,-1.89 0.34,-3.5 1.02,-4.8 0.67,-1.29 1.67,-2.28 2.99,-2.97 0.37,-0.56 0.78,-0.99 1.21,-1.29 0.49,-0.34 1.01,-0.51 1.57,-0.51l0.17 0.03zm-7.86 22.97c1.04,0.09 1.84,0.4 2.38,0.93 0.55,0.53 0.83,1.27 0.83,2.21l0 0.34c0,1.17 -2.23,8.97 -6.7,23.43 -0.82,3.49 -1.43,6.5 -1.83,9.01 -0.41,2.52 -0.62,4.56 -0.62,6.11l0.35 5.98 -1.98 1.14 -0.23 0.07c-0.74,0 -1.37,-0.48 -1.86,-1.44 -0.43,-0.82 -0.79,-2.05 -1.05,-3.66l-0.01 -0.06c0,-1.9 0.54,-5.49 1.6,-10.78 1.05,-5.18 2.61,-12 4.68,-20.46 -0.52,-0.3 -0.92,-0.72 -1.21,-1.26 -0.33,-0.63 -0.49,-1.41 -0.49,-2.34l0.02 -0.14c1.06,-2.95 2.08,-5.18 3.04,-6.67 1.03,-1.61 2.05,-2.42 3.04,-2.42l0.04 0.01zm22.63 -4.63c1.26,0.39 2.21,0.98 2.85,1.78 0.65,0.82 0.98,1.82 0.98,3.01l0 0.35c0,2.67 -1.91,9.36 -5.72,20.06 4.53,-6.97 8.91,-12.27 13.14,-15.9 4.61,-3.96 9.05,-5.94 13.31,-5.94 2.25,0 4.01,0.82 5.27,2.46 1.23,1.59 1.96,3.95 2.21,7.07l0.37 2.06c0,3.69 -0.33,7.61 -0.97,11.78 -0.65,4.16 -1.62,8.57 -2.9,13.23 -1.28,4.65 -2.45,8.15 -3.49,10.48 -1.11,2.5 -2.16,3.75 -3.14,3.75l-0.16 -0.02c-0.53,-0.2 -0.99,-0.45 -1.38,-0.77 -0.39,-0.31 -0.71,-0.69 -0.98,-1.12l-0.1 -0.16c1.24,-4.48 2.72,-11.21 4.31,-15.34 1.34,-3.13 2.35,-6.43 3.02,-9.9 0.67,-3.46 1.01,-7.1 1.01,-10.92l0 -0.35c0,-2.5 -0.37,-4.38 -1.09,-5.6 -0.68,-1.15 -1.71,-1.73 -3.07,-1.73 -6.33,0 -14.32,7.15 -23.91,21.43 -2.39,3.97 -4.23,7.7 -5.52,11.18 -1.27,3.47 -2.01,6.69 -2.18,9.67l-0.03 0.12c-0.44,1.14 -0.85,2.01 -1.22,2.59 -0.44,0.71 -0.88,1.07 -1.31,1.07l-1.77 0 -0.18 -0.04c-0.55,-0.22 -0.98,-0.58 -1.27,-1.06 -0.27,-0.46 -0.42,-1.03 -0.42,-1.7l0.02 -0.12c3.29,-10.98 5.75,-19.54 7.39,-25.67 1.64,-6.16 2.46,-9.87 2.46,-11.15l1.07 -8.01 -1 -1.57 -0.07 -0.23 0 -1.35c0,-1.15 0.38,-2.02 1.14,-2.61 0.73,-0.57 1.79,-0.85 3.19,-0.85l0.14 0.02zm76.36 -2.39l0.79 0.01c2.19,0.31 3.86,0.99 4.99,2.01 1.15,1.04 1.74,2.43 1.74,4.16l-0.01 0.75c-0.16,1.1 -0.55,1.94 -1.15,2.51 -0.62,0.59 -1.44,0.89 -2.48,0.89l-0.36 0c-1.08,0 -1.95,-0.39 -2.63,-1.18 -0.58,-0.67 -1,-1.64 -1.26,-2.89l-0.33 0c-3.78,0 -7.86,1.55 -12.25,4.65 -4.43,3.14 -9.16,7.84 -14.18,14.12 -2.32,3.58 -4.07,6.79 -5.23,9.63 -1.14,2.81 -1.72,5.25 -1.73,7.33 0.49,3.31 1.3,5.78 2.43,7.41 1.08,1.56 2.47,2.34 4.16,2.34l0.67 0c1.76,-0.47 3.68,-2.06 5.77,-4.77 2.15,-2.79 4.44,-6.75 6.89,-11.86 1.88,-4.87 3.29,-8.96 4.23,-12.26 0.91,-3.2 1.37,-5.67 1.4,-7.4 -0.56,-0.82 -0.99,-1.54 -1.29,-2.16 -0.32,-0.68 -0.49,-1.24 -0.49,-1.69l0.01 -0.09c0.26,-1.21 0.72,-2.14 1.37,-2.77 0.67,-0.65 1.54,-0.98 2.59,-0.98 1.57,0 2.79,0.88 3.63,2.63 0.79,1.63 1.27,4.06 1.42,7.28 0.11,1.72 0,3.83 0,5.59l-0.17 0.17 0.19 0.18 -3.21 39.4c0,4.49 -0.68,10.58 -2.03,18.27 -1.36,7.69 -3.38,16.96 -6.07,27.81l-0.01 0.01c-2.47,8.74 -5.87,15.31 -10.22,19.7 -4.37,4.43 -9.69,6.65 -15.96,6.65 -5.21,0 -10.56,-1.43 -16.03,-4.28 -5.44,-2.84 -11.02,-7.09 -16.72,-12.77l-0.03 -0.04c-3.9,-5.01 -6.83,-9.5 -8.78,-13.47 -1.97,-4 -2.96,-7.48 -2.96,-10.44 0,-2.85 0.97,-5.07 2.89,-6.68 1.9,-1.58 4.72,-2.55 8.47,-2.9l2.15 0c2.73,0 5.47,0.52 8.22,1.56 2.74,1.03 5.5,2.57 8.27,4.62l0.17 0.12 0 0.91c0,0.37 -0.16,0.66 -0.47,0.85 -0.25,0.16 -0.6,0.24 -1.03,0.24l-0.15 -0.02c-2.91,-1.04 -5.57,-1.9 -7.97,-2.57 -2.37,-0.66 -4.5,-1.14 -6.38,-1.45 -3.16,0.01 -5.53,0.59 -7.09,1.76 -1.53,1.14 -2.3,2.89 -2.3,5.23 0,2.81 1.14,6.15 3.39,10.03 2.27,3.92 5.69,8.37 10.23,13.35 4.64,3.9 9.17,6.84 13.59,8.79 4.4,1.94 8.7,2.92 12.89,2.92 6.5,0 11.97,-3.51 16.41,-10.53 4.49,-7.11 7.92,-17.79 10.28,-32.04 1.66,-8.5 2.89,-17.43 3.71,-26.78 0.81,-9.35 1.22,-19.13 1.22,-29.31l0 -0.18 0.36 -0.34 0 -0.09 -0.35 -1.31 -0.01 -0.1 0 -2.99c-3.22,9.38 -6.55,16.49 -9.96,21.33 -3.67,5.2 -7.48,7.8 -11.43,7.8 -2.54,0 -4.67,-1.11 -6.41,-3.31 -1.68,-2.13 -2.98,-5.32 -3.89,-9.56l-0.01 -0.08c0,-5.79 2.13,-11.87 6.41,-18.25 4.25,-6.35 10.62,-13 19.1,-19.97l0.02 -0.01c2.49,-1.82 4.81,-3.19 6.96,-4.1 2.18,-0.93 4.18,-1.39 6.01,-1.39zm77.45 -34.39c44.82,0 74.69,9.69 89.65,29.08l0.01 0.03c1.29,1.9 2.25,3.81 2.89,5.72 0.65,1.92 0.97,3.83 0.97,5.74 0,7.89 -5.39,15.45 -16.18,22.68 -10.71,7.17 -26.74,14.04 -48.11,20.6l-0.01 0.01c-6.57,1.81 -12.96,3.16 -19.15,4.06 -6.21,0.9 -12.23,1.35 -18.07,1.35l-1.47 0c-0.51,3.44 -1.04,6.05 -1.59,7.81 -0.61,2.01 -1.33,3.01 -2.14,3.01l-0.45 0 -0.32 -0.12 -1.55 -1.49c0,-3.03 0.58,-6.24 0.92,-9.27 -5.78,-0.79 -10.15,-1.86 -13.1,-3.19 -3.14,-1.43 -4.72,-3.19 -4.72,-5.29l0.03 -0.16c0.3,-0.7 0.62,-1.26 0.95,-1.67 0.37,-0.46 0.77,-0.75 1.18,-0.86l0.12 -0.02 2.16 0 0.13 0.15c1.65,1.74 3.73,3.05 6.24,3.92 2.45,0.86 5.31,1.3 8.58,1.32 4.81,-16.16 8.41,-29.83 10.82,-41 2.42,-11.26 3.63,-19.99 3.63,-26.2l0 -5.66c-0.58,-0.6 -1.03,-1.16 -1.34,-1.69 -0.25,-0.43 -0.41,-0.84 -0.48,-1.24 -1.15,0.08 -2.79,0.45 -4.92,1.11 -2.42,0.76 -5.46,1.89 -9.12,3.4l-0.32 0.01c-1.49,-0.49 -2.61,-1.16 -3.37,-1.97 -0.78,-0.84 -1.18,-1.84 -1.18,-2.99 0,-1.84 1.27,-3.36 3.78,-4.56 2.4,-1.15 5.98,-2.02 10.72,-2.62l4.81 0zm10.48 6.25l0.27 0.8 0.02 0.13c0,3.61 -1.57,11.7 -4.71,24.29 -3.13,12.56 -7.82,29.6 -14.07,51.12l-0.42 1.75 3.23 0c13.57,0 27.26,-2.28 41.08,-6.84 13.82,-4.56 27.77,-11.41 41.85,-20.54 3.24,-3.03 5.68,-5.77 7.29,-8.21 1.6,-2.41 2.4,-4.51 2.4,-6.31l0 -3.63c0,-4.63 -2.77,-9.21 -8.31,-13.72 -5.6,-4.56 -14.01,-9.05 -25.24,-13.44 -6,-1.8 -12,-3.15 -18.01,-4.05 -6.01,-0.89 -12.02,-1.35 -18.05,-1.35l-7.33 0zm126.91 25.25l1.41 0c2.16,0 3.9,0.49 5.21,1.45 1.32,0.97 2.2,2.42 2.63,4.32l-0.02 0.23c-0.18,0.49 -0.37,0.87 -0.58,1.13 -0.26,0.34 -0.56,0.52 -0.9,0.52l-1.62 0 -0.13 -0.15c-0.96,-1.09 -1.92,-1.91 -2.86,-2.44 -0.93,-0.53 -1.86,-0.79 -2.78,-0.79 -4.94,0 -9.78,1.44 -14.52,4.33 -4.77,2.9 -9.45,7.26 -14.03,13.07 -3.73,5.46 -6.53,10.9 -8.4,16.33 -1.86,5.42 -2.79,10.83 -2.79,16.22l-0.01 0.1c-0.34,1.41 -0.82,2.48 -1.45,3.21 -0.68,0.77 -1.52,1.16 -2.51,1.16l-0.17 -0.03c-0.9,-0.36 -1.58,-0.82 -2.04,-1.39 -0.47,-0.58 -0.71,-1.26 -0.71,-2.04l0 -0.34c0,-2.19 0.56,-6.58 1.69,-13.18 1.12,-6.51 2.78,-15.15 4.98,-25.9l-0.32 -0.31 0 -0.52c0,-0.65 0.23,-1.3 0.69,-1.93 0.44,-0.61 1.1,-1.21 1.97,-1.8l0.26 -0.08 2.46 0 0.21 0.06c0.78,0.39 1.36,0.91 1.75,1.54 0.4,0.63 0.6,1.38 0.6,2.21 0,0.78 -0.48,2.58 -1.44,5.4 -0.61,1.8 -1.42,4.04 -2.44,6.7 2.71,-5.08 5.89,-9.53 9.55,-13.35 4.73,-4.95 10.27,-8.83 16.61,-11.64l0.06 -0.02c2.42,-0.68 4.43,-1.19 6.03,-1.54 1.62,-0.35 2.82,-0.53 3.61,-0.53zm22.32 11.09l1.79 0c1.74,0.18 3.05,0.61 3.93,1.28 0.94,0.71 1.4,1.67 1.4,2.87l0 1.36c0,1.72 -1.95,4.4 -5.86,8.03 -3.83,3.56 -9.57,8.1 -17.21,13.61l-0.04 0.02c-2.25,1.28 -4.47,2.37 -6.67,3.29 -2.11,0.88 -4.19,1.59 -6.23,2.11l-0.29 1.37c0,1.62 0.52,2.98 1.55,4.07 1.05,1.11 2.65,1.97 4.79,2.56l3.09 0.34 1.07 0c0.94,0 2.57,-0.19 4.88,-0.58 2.35,-0.39 5.38,-0.98 9.1,-1.77l0.29 -0.06 0.89 1.25 0.08 0.24 0 1.24 -0.2 0.13c-2.19,1.38 -4.63,2.42 -7.33,3.11 -2.68,0.68 -5.61,1.03 -8.8,1.03 -3.51,0 -6.45,-0.67 -8.82,-2.01 -2.37,-1.35 -4.16,-3.37 -5.34,-6.05l-0.03 -0.11 -0.33 -2.36 0 -0.1 0.28 -2.6 -0.04 -0.01c-0.66,-0.32 -1.16,-0.74 -1.5,-1.26 -0.34,-0.52 -0.52,-1.13 -0.52,-1.83 0,-1.28 0.46,-2.33 1.38,-3.15 0.89,-0.79 2.2,-1.34 3.92,-1.66l0.23 -0.04 0.14 0.13c5.58,-8.05 10.87,-14.11 15.87,-18.17 5.13,-4.19 9.98,-6.28 14.53,-6.28zm-25.66 25.25c3.61,-0.83 7.09,-2.2 10.42,-4.11 3.48,-2.01 6.82,-4.61 9.98,-7.82l0.03 -0.03c2.33,-1.9 4.07,-3.55 5.22,-4.93 0.97,-1.15 1.51,-2.11 1.63,-2.87l-2.39 -0.56c-3.44,0.01 -7.17,1.59 -11.19,4.73 -4.07,3.18 -8.43,7.96 -13.05,14.34l-0.65 1.25zm71.74 -26.78c2.35,0 4.41,0.71 6.2,2.13 1.76,1.4 3.24,3.49 4.44,6.27l0.03 0.1c0.12,0.79 0.43,2.01 0.36,2.79 -0.27,2.66 -0.84,4.67 -1.69,6.02 -0.91,1.44 -2.13,2.16 -3.68,2.16l-0.09 -0.01c-1.26,-0.25 -2.22,-0.68 -2.87,-1.31 -0.67,-0.64 -1.01,-1.47 -1.01,-2.49l0.04 -0.19 2.75 -5.33c-0.02,-1.56 -0.55,-2.77 -1.6,-3.62 -1.09,-0.9 -2.76,-1.43 -5,-1.59 -3.53,0 -7.43,1.66 -11.69,4.97 -4.31,3.35 -8.98,8.4 -14.01,15.13 -2.21,3.74 -3.88,7.04 -4.98,9.88 -1.1,2.82 -1.65,5.2 -1.65,7.13l0 0.34c0,0.92 0.19,1.71 0.57,2.38 0.35,0.63 0.88,1.16 1.58,1.58l0.6 0c3.32,0 7.14,-2.46 11.45,-7.37 4.37,-4.99 9.22,-12.47 14.53,-22.45 0.71,-2.82 1.43,-4.95 2.14,-6.37 0.79,-1.57 1.63,-2.36 2.53,-2.36l1.24 0 1.54 1.48 0.13 0.3 0 1.01 -0.02 0.14c-1.41,4.18 -2.47,7.79 -3.17,10.82 -0.7,3.01 -1.05,5.45 -1.05,7.31 0,3.07 0.66,5.89 1.98,8.48 1.33,2.59 3.32,4.95 5.98,7.09l0.16 0.13 0 1.39 -1.18 1.14 -0.32 0.12 -0.36 0c-1.1,0 -2.25,-0.49 -3.45,-1.46 -1.15,-0.93 -2.36,-2.32 -3.63,-4.16l-0.02 -0.02c-1.19,-1.99 -2.08,-4.09 -2.68,-6.26 -0.6,-2.18 -0.9,-4.45 -0.9,-6.8l0 -1.32c-4.8,7.83 -9.18,13.75 -13.13,17.75 -4.14,4.21 -7.84,6.31 -11.08,6.31l-1.78 0c-2.97,0 -5.02,-2.25 -6.06,-6.74l-0.01 -0.44c0,-5.07 1.72,-10.6 5.17,-16.59 3.42,-5.94 8.56,-12.34 15.41,-19.2l0.03 -0.04c3.43,-2.73 6.66,-4.78 9.69,-6.16 3.05,-1.38 5.91,-2.07 8.56,-2.07zm83.2 -22.39l1.13 0c1.38,0.22 2.44,0.67 3.15,1.35 0.74,0.71 1.11,1.64 1.11,2.8l0 1.7c0,3.02 -1.87,8.61 -5.59,16.78 -3.71,8.11 -9.26,18.81 -16.66,32.09 -2.41,5.15 -4.26,9.75 -5.54,13.79 -1.28,3.99 -2,7.43 -2.17,10.32l0.66 1.94 0.01 0.25c-0.25,0.87 -0.65,1.53 -1.18,1.98 -0.56,0.47 -1.26,0.7 -2.08,0.7l-0.69 0 -0.18 -0.04c-0.68,-0.28 -1.19,-0.72 -1.54,-1.31 -0.33,-0.58 -0.51,-1.28 -0.51,-2.11l0.01 -0.04c0.36,-3.43 1.7,-8.07 4,-13.91 2.3,-5.81 5.56,-12.84 9.79,-21.07l0.01 -0.01c5.63,-10.01 9.86,-18.27 12.67,-24.79 2.8,-6.48 4.21,-11.23 4.21,-14.25 0,-0.47 -0.1,-0.84 -0.28,-1.1 -0.16,-0.23 -0.39,-0.38 -0.7,-0.48 -4.64,1.1 -9.53,3.95 -14.67,8.54 -5.2,4.65 -10.64,11.09 -16.31,19.32 -2.57,3.98 -5.22,8.98 -7.91,15 -2.7,6.02 -5.46,13.05 -8.26,21.07l-0.14 0.19c-0.46,0.37 -0.93,0.65 -1.38,0.84 -0.47,0.2 -0.93,0.3 -1.37,0.3l-0.21 -0.05c-0.87,-0.42 -1.53,-0.88 -1.98,-1.38 -0.49,-0.53 -0.73,-1.1 -0.73,-1.71l0.02 -0.11c2.22,-8.03 3.9,-14.35 5.02,-18.97 0.92,-3.79 1.46,-6.41 1.62,-7.88 -2.86,1.67 -5.5,4.2 -7.9,7.58 -2.62,3.68 -4.97,8.37 -7.05,14.06 -0.71,3.75 -1.58,6.57 -2.59,8.46 -1.08,2.02 -2.35,3.03 -3.83,3.03l-1.05 0 -0.23 -0.06c-0.64,-0.36 -1.13,-0.77 -1.46,-1.21 -0.36,-0.47 -0.54,-0.99 -0.54,-1.53l0.02 -0.12c2.12,-6.54 3.7,-12.59 4.75,-18.14 1.06,-5.56 1.58,-10.63 1.58,-15.21l0 -0.73c-0.31,-0.17 -0.56,-0.42 -0.73,-0.77 -0.21,-0.39 -0.32,-0.91 -0.32,-1.56l0 -0.32c0,-1.03 0.37,-1.87 1.11,-2.52 0.72,-0.62 1.76,-1.05 3.14,-1.28l0.08 0c1.09,0 1.97,0.36 2.65,1.06 0.65,0.68 1.08,1.68 1.31,2.99l0.01 0.07c0,1.73 -0.27,3.96 -0.8,6.69 -0.4,2.07 -0.96,4.43 -1.67,7.09 0.82,-1.44 1.94,-2.99 3.35,-4.65 2.3,-2.72 5.4,-5.75 9.29,-9.1l0.17 -0.09 2.47 -0.67 0.12 -0.02 1.42 0 0.23 0.07c0.78,0.46 1.37,1.03 1.76,1.72 0.39,0.69 0.59,1.47 0.59,2.37l-1.59 7.1c1.52,-3.38 3.64,-7.15 6.37,-11.3 3.42,-5.2 7.78,-11 13.1,-17.4l0.04 -0.03c5.26,-5.08 9.79,-8.9 13.57,-11.45 3.84,-2.59 6.94,-3.88 9.3,-3.88zm23 10.99c2.78,0.47 4.88,1.32 6.29,2.56 1.45,1.27 2.18,2.93 2.18,4.97 0,2.21 -0.82,4.77 -2.44,7.66 -1.6,2.84 -3.99,6.02 -7.18,9.53l-0.38 0.37 -0.32 0.13 -1.74 0c-1.21,0 -2.12,-0.37 -2.74,-1.09 -0.6,-0.71 -0.9,-1.73 -0.9,-3.07 0,-0.69 2.5,-3.38 7.5,-8.06 0.91,-1.36 1.6,-2.47 2.06,-3.35 0.44,-0.85 0.67,-1.45 0.67,-1.77 0,-0.76 -0.25,-1.35 -0.73,-1.77 -0.51,-0.44 -1.3,-0.73 -2.37,-0.86l-1.39 0c-1.91,0 -3.94,0.68 -6.1,2.04 -2.18,1.39 -4.49,3.47 -6.92,6.23 -0.68,1.01 -1.2,1.95 -1.55,2.83 -0.33,0.85 -0.5,1.64 -0.5,2.35l0 0.66c0,1.56 1.09,3.72 3.27,6.47 2.22,2.8 5.56,6.18 10,10.12l0.06 0.06c2.12,2.78 3.71,5.32 4.78,7.6 1.08,2.32 1.62,4.39 1.62,6.19 0,2.87 -1.47,5.42 -4.4,7.65 -2.86,2.18 -7.14,4.05 -12.83,5.61 -0.87,0.14 -3.2,0.37 -4.06,0.36 -2.53,-0.33 -4.44,-0.87 -5.73,-1.63 -1.37,-0.81 -2.06,-1.87 -2.06,-3.19l0 -0.69 0.13 -0.3 1.55 -1.49 1.59 0 0.28 0.1c1.02,0.76 1.98,1.33 2.88,1.71 0.88,0.37 1.71,0.56 2.47,0.56 3.24,0 6.1,-0.66 8.55,-1.97 2.44,-1.31 4.51,-3.27 6.19,-5.88l0.33 -1.23c-0.01,-2.36 -1.34,-5.32 -3.97,-8.88 -2.68,-3.64 -6.72,-7.89 -12.1,-12.75l-0.05 -0.06c-1.09,-1.39 -1.91,-2.79 -2.45,-4.17 -0.55,-1.41 -0.83,-2.81 -0.83,-4.19l0 -0.66c0,-3.42 1.42,-6.63 4.27,-9.64 2.8,-2.98 6.99,-5.76 12.56,-8.35l0.12 -0.04 4.24 -0.67 0.15 0zm19.3 49.63l1.14 0.01c1.64,0.32 2.88,0.98 3.71,1.96 0.83,0.98 1.25,2.27 1.25,3.86l0 0.08c-0.41,2 -1.15,3.51 -2.21,4.53 -1.08,1.04 -2.49,1.56 -4.22,1.56 -1.42,0 -2.56,-0.6 -3.42,-1.79 -0.8,-1.12 -1.35,-2.79 -1.63,-4.99l0.01 -0.13c0.31,-1.68 0.91,-2.94 1.8,-3.79 0.9,-0.87 2.09,-1.3 3.57,-1.3zm19.22 0l1.14 0.01c1.64,0.32 2.88,0.98 3.71,1.96 0.84,0.98 1.26,2.27 1.26,3.86l-0.01 0.08c-0.41,2 -1.14,3.51 -2.21,4.53 -1.08,1.04 -2.49,1.56 -4.22,1.56 -1.42,0 -2.56,-0.6 -3.41,-1.79 -0.81,-1.12 -1.36,-2.79 -1.64,-4.99l0.01 -0.13c0.31,-1.68 0.91,-2.94 1.8,-3.79 0.91,-0.87 2.09,-1.3 3.57,-1.3zm19.22 0l1.15 0.01c1.63,0.32 2.87,0.98 3.7,1.96 0.84,0.98 1.26,2.27 1.26,3.86l-0.01 0.08c-0.41,2 -1.14,3.51 -2.21,4.53 -1.08,1.04 -2.49,1.56 -4.22,1.56 -1.42,0 -2.56,-0.6 -3.41,-1.79 -0.81,-1.12 -1.36,-2.79 -1.64,-4.99l0.01 -0.13c0.32,-1.68 0.91,-2.94 1.8,-3.79 0.91,-0.87 2.1,-1.3 3.57,-1.3zm19.22 0l1.15 0.01c1.63,0.32 2.87,0.98 3.7,1.96 0.84,0.98 1.26,2.27 1.26,3.86l-0.01 0.08c-0.41,2 -1.14,3.51 -2.2,4.53 -1.09,1.04 -2.49,1.56 -4.23,1.56 -1.42,0 -2.56,-0.6 -3.41,-1.79 -0.81,-1.12 -1.35,-2.79 -1.63,-4.99l0 -0.13c0.32,-1.68 0.92,-2.94 1.8,-3.79 0.91,-0.87 2.1,-1.3 3.57,-1.3zm19.23 0l1.14 0.01c1.64,0.32 2.87,0.98 3.71,1.96 0.83,0.98 1.25,2.27 1.25,3.86l-0.01 0.08c-0.4,2 -1.14,3.51 -2.2,4.53 -1.09,1.04 -2.49,1.56 -4.22,1.56 -1.42,0 -2.56,-0.6 -3.42,-1.79 -0.81,-1.12 -1.35,-2.79 -1.63,-4.99l0 -0.13c0.32,-1.68 0.92,-2.94 1.8,-3.79 0.91,-0.87 2.1,-1.3 3.58,-1.3z"/>
   <path class="fil1" d="M130.8 425.19l-130.8 0 0 -264.79c0,-53.07 23.19,-94.15 69.71,-122.66 41.21,-25.25 93.2,-37.74 159.76,-37.74l207.53 0 -78.99 109.69 -182.47 0c-23.91,0 -43.47,19.52 -43.47,43.39 0,23.87 19.56,43.39 43.47,43.39l119.97 0 -33.55 46.59 -86.42 0c-23.81,0 -43.47,19.44 -43.47,43.39 0,23.97 19.68,43.39 43.47,43.39l23.92 0 -68.66 95.35z"/>
   <path class="fil0" d="M873.48 425.19l-130.24 0 -164.73 -228.72 118.23 0c23.92,0 43.48,-19.53 43.48,-43.39 0,-23.87 -19.57,-43.39 -43.48,-43.39l-180.74 0 -79 -109.69 207.51 0c66.56,0 118.56,12.49 159.78,37.74 46.51,28.51 69.71,69.59 69.71,122.66 0,54.2 -42.28,117.07 -92.63,136.82l92.11 127.97z"/>
   <polygon class="fil1" points="732.27,425.19 436.98,47.24 141.73,425.19 436.98,201.07 "/>
   <rect class="fil1" x="383.85" y="296.61" width="47.24" height="47.24"/>
   <rect class="fil1" transform="matrix(4.21454E-14 -1.59135 1.59132 4.21461E-14 383.853 402.911)" width="29.69" height="29.69"/>
   <rect class="fil1" transform="matrix(4.21454E-14 -1.59135 1.59132 4.21461E-14 442.907 402.911)" width="29.69" height="29.69"/>
   <rect class="fil1" x="442.91" y="296.61" width="47.24" height="47.24"/>
   <path class="fil0" d="M2.26 448.81l869.48 0c1.25,0 2.26,1.03 2.26,2.3l0 160.75c0,1.27 -1.01,2.3 -2.26,2.3l-869.48 0c-1.25,0 -2.26,-1.03 -2.26,-2.3l0 -160.75c0,-1.27 1.01,-2.3 2.26,-2.3zm867.22 4.6l-864.96 0 0 156.15 864.96 0 0 -156.15z"/>
   <path class="fil1" d="M395.68 483.63l437 0 0 94.48 -437 0 0 -94.48zm30.95 42.78l1.89 0c5.5,0 9.15,-0.67 10.95,-2 1.81,-1.34 2.72,-3.69 2.72,-7.09 0,-3.65 -0.97,-6.23 -2.91,-7.73 -1.94,-1.5 -5.53,-2.25 -10.76,-2.25l-1.89 0 0 19.07zm-0.63 8.37l0 29.76 -9.74 0 0 -66.5 14.48 0c4.25,0 7.54,0.3 9.9,0.87 2.34,0.57 4.33,1.52 5.99,2.85 1.98,1.61 3.5,3.69 4.59,6.23 1.07,2.55 1.61,5.32 1.61,8.36 0,5.31 -1.24,9.48 -3.71,12.51 -2.48,3 -6.13,4.82 -10.96,5.42l22 30.26 -11.71 0 -21.28 -29.76 -1.17 0zm40.33 29.76l0 -66.5 35.67 0 0 9.21 -25.3 0 0 16.65 25.3 0 0 9.48 -25.3 0 0 21.48 25.3 0 0 9.68 -35.67 0zm61.08 -26.14l17.83 0 -6.56 -15.16c-0.37,-0.96 -0.78,-2.07 -1.18,-3.33 -0.4,-1.25 -0.82,-2.65 -1.22,-4.2 -0.34,1.46 -0.72,2.81 -1.12,4.06 -0.39,1.26 -0.79,2.42 -1.19,3.47l-6.56 15.16zm28.73 26.14l-7.24 -17.12 -25.33 0 -7.42 17.12 -10.91 0 30.95 -69.1 30.92 69.1 -10.97 0zm16.98 0l0 -66.5 10.37 0 0 56.82 23.25 0 0 9.68 -33.62 0zm57.8 -57.29l0 57.29 -10.37 0 0 -57.29 -16.99 0 0 -9.21 44.26 0 0 9.21 -16.9 0zm76.38 24.18c0,-3.37 -0.6,-6.56 -1.78,-9.58 -1.18,-3.02 -2.87,-5.72 -5.08,-8.08 -2.16,-2.34 -4.65,-4.12 -7.48,-5.37 -2.85,-1.26 -5.84,-1.9 -8.97,-1.9 -3.15,0 -6.14,0.62 -8.99,1.86 -2.83,1.24 -5.36,3.04 -7.57,5.41 -2.2,2.33 -3.9,5.01 -5.06,8.03 -1.17,3.03 -1.75,6.23 -1.75,9.63 0,3.36 0.58,6.54 1.75,9.53 1.16,2.99 2.86,5.67 5.06,8.03 2.21,2.37 4.73,4.17 7.56,5.41 2.81,1.24 5.83,1.86 9,1.86 3.11,0 6.06,-0.62 8.88,-1.86 2.8,-1.24 5.33,-3.04 7.57,-5.41 2.21,-2.36 3.9,-5.04 5.08,-8.04 1.18,-3.03 1.78,-6.19 1.78,-9.52zm10.81 0c0,4.73 -0.85,9.19 -2.54,13.39 -1.72,4.22 -4.19,7.97 -7.46,11.27 -3.28,3.3 -6.98,5.83 -11.13,7.58 -4.13,1.75 -8.46,2.63 -12.99,2.63 -4.61,0 -8.99,-0.88 -13.17,-2.65 -4.18,-1.78 -7.86,-4.29 -11.06,-7.56 -3.27,-3.3 -5.74,-7.04 -7.42,-11.22 -1.69,-4.17 -2.54,-8.65 -2.54,-13.44 0,-4.76 0.85,-9.24 2.54,-13.44 1.68,-4.22 4.15,-7.98 7.42,-11.31 3.26,-3.31 6.96,-5.82 11.08,-7.54 4.13,-1.72 8.51,-2.59 13.15,-2.59 4.59,0 8.94,0.87 13.07,2.59 4.11,1.72 7.81,4.23 11.05,7.54 3.27,3.36 5.74,7.16 7.46,11.37 1.69,4.23 2.54,8.68 2.54,13.38zm22.28 -5.02l1.9 0c5.49,0 9.15,-0.67 10.95,-2 1.8,-1.34 2.71,-3.69 2.71,-7.09 0,-3.65 -0.97,-6.23 -2.91,-7.73 -1.93,-1.5 -5.52,-2.25 -10.75,-2.25l-1.9 0 0 19.07zm-0.62 8.37l0 29.76 -9.75 0 0 -66.5 14.49 0c4.24,0 7.54,0.3 9.89,0.87 2.34,0.57 4.34,1.52 5.99,2.85 1.98,1.61 3.5,3.69 4.59,6.23 1.07,2.55 1.61,5.32 1.61,8.36 0,5.31 -1.24,9.48 -3.71,12.51 -2.47,3 -6.12,4.82 -10.95,5.42l21.99 30.26 -11.71 0 -21.28 -29.76 -1.16 0zm36.66 16.44l8.28 -3.98c0.79,2.96 2.24,5.22 4.34,6.77 2.08,1.57 4.77,2.34 8.03,2.34 3.1,0 5.54,-0.9 7.38,-2.68 1.82,-1.78 2.73,-4.17 2.73,-7.16 0,-3.91 -3.12,-7.39 -9.36,-10.45 -0.88,-0.45 -1.55,-0.79 -2.02,-0.99 -7.04,-3.58 -11.74,-6.8 -14.08,-9.7 -2.34,-2.9 -3.52,-6.43 -3.52,-10.6 0,-5.43 1.78,-9.82 5.31,-13.18 3.53,-3.36 8.18,-5.04 13.92,-5.04 4.71,0 8.66,0.95 11.83,2.84 3.18,1.89 5.37,4.6 6.59,8.14l-8.11 4.37c-1.28,-2.09 -2.68,-3.63 -4.22,-4.59 -1.53,-0.98 -3.29,-1.46 -5.27,-1.46 -2.79,0 -5.02,0.76 -6.66,2.28 -1.66,1.51 -2.48,3.54 -2.48,6.08 0,4 3.62,7.73 10.85,11.17 0.55,0.28 0.99,0.5 1.31,0.64 6.32,3.04 10.66,6 13.01,8.88 2.36,2.9 3.54,6.51 3.54,10.84 0,6.29 -1.91,11.29 -5.73,15 -3.81,3.7 -8.97,5.56 -15.47,5.56 -5.44,0 -9.89,-1.3 -13.38,-3.9 -3.47,-2.61 -5.75,-6.33 -6.82,-11.18z"/>
   <g>
    <polygon class="fil0" points="322.19,483.63 332.02,483.63 373.74,530.74 373.74,483.63 395.68,483.63 395.68,578.11 385.85,578.11 344.01,530.87 344.01,578.11 322.19,578.11 "/>
    <polygon class="fil0" points="246.92,578.11 246.92,483.63 306.62,483.63 306.62,505.64 268.73,505.64 268.73,519.86 298.11,519.86 298.11,541.88 268.73,541.88 268.73,556.1 306.5,556.1 306.5,578.11 "/>
    <polygon class="fil0" points="189.05,578.11 172.61,538.89 156.28,578.11 149.08,578.11 111.74,483.63 134.91,483.63 153.28,529.61 169.01,492.77 176.33,492.77 192.06,529.61 210.42,483.63 233.59,483.63 196.26,578.11 "/>
    <polygon class="fil0" points="41.36,578.1 41.36,483.64 101.05,483.64 101.05,505.64 63.17,505.64 63.17,519.87 92.54,519.87 92.54,541.87 63.17,541.87 63.17,556.1 100.93,556.1 100.93,578.1 "/>
   </g>
  </g>
 </g>
</svg>
