<svg id="girl" xmlns="http://www.w3.org/2000/svg" xmlns:xlink="http://www.w3.org/1999/xlink" viewBox="0 0 411.71 615.53"><defs><style>.cls-1{fill:#c0cace;}.cls-2{fill:url(#linear-gradient);}.cls-3{fill:#715737;}.cls-4{fill:#604c37;}.cls-5{fill:#826648;}.cls-6{fill:#375629;}.cls-7{fill:#664c42;}.cls-8{fill:#d15e3d;}.cls-9{fill:url(#linear-gradient-2);}.cls-10{fill:#afe89a;}.cls-11{fill:url(#linear-gradient-3);}.cls-12{fill:#525629;}.cls-13{fill:#873dd1;}.cls-14{fill:url(#linear-gradient-4);}.cls-15{fill:#3db6d1;}.cls-16{fill:url(#linear-gradient-5);}.cls-17{fill:url(#linear-gradient-6);}.cls-18{fill:#8e6b3f;}.cls-19{fill:#775c3f;}.cls-20{fill:#a57f56;}.cls-21{fill:#83ae74;}.cls-22{fill:#7a3724;}.cls-23{fill:url(#linear-gradient-7);}.cls-24{fill:url(#linear-gradient-8);}.cls-25{fill:#58744d;}.cls-26{fill:url(#linear-gradient-9);}.cls-27{fill:#485c57;}.cls-28{fill:#c9a678;}.cls-29{fill:url(#linear-gradient-10);}.cls-30{fill:#e80040;}.cls-31{fill:url(#linear-gradient-11);}.cls-32{fill:#919d9a;}.cls-33{fill:url(#linear-gradient-12);}.cls-34{fill:#d1c23d;}.cls-35{fill:url(#linear-gradient-13);}.cls-36{fill:#bf661a;}</style><linearGradient id="linear-gradient" x1="84.91" y1="92.96" x2="84.91" y2="47.37" gradientTransform="matrix(-1, 0, 0, 1, 297.05, 0)" gradientUnits="userSpaceOnUse"><stop offset="0.68" stop-color="#e9e6d0"/><stop offset="1" stop-color="#716f3d"/></linearGradient><linearGradient id="linear-gradient-2" x1="67.21" y1="43.95" x2="67.21" y2="15.12" xlink:href="#linear-gradient"/><linearGradient id="linear-gradient-3" x1="87.34" y1="129.56" x2="87.34" y2="95.16" xlink:href="#linear-gradient"/><linearGradient id="linear-gradient-4" x1="59.51" y1="178.4" x2="59.51" y2="132.81" xlink:href="#linear-gradient"/><linearGradient id="linear-gradient-5" x1="83.23" y1="222.65" x2="83.23" y2="181.26" xlink:href="#linear-gradient"/><linearGradient id="linear-gradient-6" x1="49.05" y1="272.05" x2="49.05" y2="226.46" gradientTransform="matrix(-1, 0, 0, 1, 297.05, 0)" gradientUnits="userSpaceOnUse"><stop offset="0.68" stop-color="#fff"/><stop offset="1" stop-color="#8e8b47"/></linearGradient><linearGradient id="linear-gradient-7" x1="67.76" y1="321.29" x2="67.76" y2="275.71" xlink:href="#linear-gradient"/><linearGradient id="linear-gradient-8" x1="61.02" y1="393.02" x2="61.02" y2="328.15" xlink:href="#linear-gradient"/><linearGradient id="linear-gradient-9" x1="74.45" y1="424.93" x2="74.45" y2="396.47" xlink:href="#linear-gradient"/><linearGradient id="linear-gradient-10" x1="61.4" y1="469.17" x2="61.4" y2="427.78" xlink:href="#linear-gradient-6"/><linearGradient id="linear-gradient-11" x1="67.76" y1="518.26" x2="67.76" y2="472.67" xlink:href="#linear-gradient-6"/><linearGradient id="linear-gradient-12" x1="72.22" y1="567.5" x2="72.22" y2="521.91" xlink:href="#linear-gradient-6"/><linearGradient id="linear-gradient-13" x1="67.76" y1="616.74" x2="67.76" y2="571.15" xlink:href="#linear-gradient"/></defs><ellipse class="cls-1" cx="205.85" cy="602.78" rx="205.85" ry="12.75"/><path class="cls-2" d="M285,47.37c11.46,0,20.76,10.21,20.76,22.8S296.43,93,285,93H118.55V89l11.08.3H279.89L292.61,89c.18-.22.35-.45.54-.67L279.89,88H129.63l-11.08.3V85l11.08.3H279.89l16.5-.44c0-.16.09-.31.13-.47q-8.31-.24-16.63-.44H129.63l-11.08.3v-3.3l11.08.3H279.89c5.84-.15,11.68-.29,17.52-.46l.09-.42q-8.81-.25-17.61-.47H129.63l-11.08.3V76.88l11.08.3H279.89L298,76.7c0-.13,0-.27,0-.4q-9-.26-18.1-.47H129.63l-11.08.3v-3.3l11.08.3H279.89q9.09-.22,18.18-.47c0-.14,0-.27,0-.4l-18.17-.48H129.63l-11.08.3V68.79l11.08.3H279.89q9-.24,18.06-.48c0-.13,0-.28,0-.4q-9-.25-18-.47H129.63l-11.08.3v-3.3l11.08.3H279.89c5.81-.15,11.63-.29,17.44-.45,0-.15-.07-.3-.11-.45-5.77-.16-11.55-.3-17.33-.45H129.63l-11.08.3V60.7l11.08.3H279.89l16.41-.43-.14-.5c-5.42-.15-10.84-.28-16.27-.42H129.63l-11.08.3v-3.3l11.08.3H279.89c4.93-.12,9.85-.26,14.78-.39q-.14-.27-.27-.57l-14.51-.39H129.63l-11.08.3V52.61l11.08.3H279.89l12.92-.34c-.13-.28-.26-.52-.34-.67h0c-4.19-.11-8.38-.23-12.57-.33H129.63l-11.08.3V47.37Z" transform="translate(-21.63 -14.08)"/><path class="cls-3" d="M254.85,88h25l13.26.35c-.19.22-.36.45-.54.67l-12.72.33H129.63L118.55,89l1-.37,10-.68Z" transform="translate(-21.63 -14.08)"/><path class="cls-4" d="M254.85,83.92h25q8.33.21,16.63.44c0,.16-.09.31-.13.47l-16.5.44H129.63L118.55,85l1.57-.38,9.51-.67Z" transform="translate(-21.63 -14.08)"/><path class="cls-3" d="M254.85,79.87h25q8.81.22,17.61.47l-.09.42c-5.84.17-11.68.31-17.52.46H129.63l-11.08-1h0l11.08-.3Z" transform="translate(-21.63 -14.08)"/><path class="cls-3" d="M254.85,75.83h25q9,.23,18.1.47c0,.13,0,.27,0,.4l-18.08.48H129.63l-11.08-.3h0l11.08-1Z" transform="translate(-21.63 -14.08)"/><path class="cls-5" d="M254.85,71.78h25l18.17.48c0,.13,0,.26,0,.4q-9.09.25-18.18.47H129.63l-11.08-.3,1.79-.8,9.29-.25Z" transform="translate(-21.63 -14.08)"/><path class="cls-3" d="M254.85,67.74h25q9,.23,18,.47c0,.12,0,.27,0,.4q-9,.26-18.06.48H129.63l-11.08-.3,1-.38,10-.67Z" transform="translate(-21.63 -14.08)"/><path class="cls-3" d="M254.85,63.69h25c5.78.15,11.56.29,17.33.45,0,.15.08.3.11.45-5.81.16-11.63.3-17.44.45H129.63l-10-.27-1-.78,11.08-.3Z" transform="translate(-21.63 -14.08)"/><path class="cls-3" d="M254.85,59.65h25c5.43.14,10.85.27,16.27.42l.14.5L279.89,61H129.63l-11.08-.3h0l11.08-1.05Z" transform="translate(-21.63 -14.08)"/><path class="cls-3" d="M254.85,55.6h25L294.4,56q.14.3.27.57c-4.93.13-9.85.27-14.78.39H129.63l-11.08-.3,1-.37,10-.68Z" transform="translate(-21.63 -14.08)"/><path class="cls-3" d="M254.85,51.56h25c4.19.1,8.38.22,12.57.33h0c.08.15.21.39.34.67l-12.92.34H129.63l-11.08-.3h0l11.08-1Z" transform="translate(-21.63 -14.08)"/><path class="cls-6" d="M289.55,93a33.59,33.59,0,0,0,8.22-10.1,26,26,0,0,0,3-12.49,29.68,29.68,0,0,0-3.09-12.45,40.76,40.76,0,0,0-3.31-5.58,44.43,44.43,0,0,0-4.23-5,53.89,53.89,0,0,1,6.28,11,33.64,33.64,0,0,1,2.58,12,28.44,28.44,0,0,1-2.47,12,33.13,33.13,0,0,1-3.07,5.5A49.44,49.44,0,0,1,289.55,93Z" transform="translate(-21.63 -14.08)"/><path class="cls-7" d="M289.32,93a33,33,0,0,0,7-10.1,29.7,29.7,0,0,0,2.56-12.49,33.73,33.73,0,0,0-2.64-12.45,42.26,42.26,0,0,0-2.82-5.58,45.08,45.08,0,0,0-3.61-5,57,57,0,0,1,5.35,11,38.11,38.11,0,0,1,2.21,12,32.54,32.54,0,0,1-2.11,12,34.61,34.61,0,0,1-2.62,5.5A49.78,49.78,0,0,1,289.32,93Z" transform="translate(-21.63 -14.08)"/><path class="cls-8" d="M112.83,91.32h170.5c11.08,0,20.1-9.49,20.1-21.15S294.41,49,283.33,49H112.83c-1.72,0-3.12-.73-3.12-1.64s1.4-1.64,3.12-1.64h170.5c12.8,0,23.22,11,23.22,24.44S296.13,94.6,283.33,94.6H112.83c-1.72,0-3.12-.73-3.12-1.64S111.11,91.32,112.83,91.32Z" transform="translate(-21.63 -14.08)"/><path class="cls-9" d="M289,15.12c9.31,0,16.86,6.46,16.86,14.42S298.33,44,289,44H153.8V41.46l9,.19H284.89l10.33-.21.44-.43-10.77-.22H162.8l-9,.19V38.9l9,.19H284.89l13.4-.28c0-.1.08-.2.11-.3l-13.51-.28H162.8l-9,.18V36.34l9,.19H284.89l14.23-.29c0-.09.05-.18.08-.27l-14.31-.29H162.8l-9,.19V33.78l9,.19H284.89c4.89-.1,9.79-.19,14.68-.3a2.11,2.11,0,0,0,0-.25l-14.7-.3H162.8l-9,.19V31.22l9,.19H284.89l14.77-.31c0-.08,0-.17,0-.25-4.92-.11-9.84-.2-14.76-.3H162.8l-9,.19V28.67l9,.19H284.89l14.67-.3c0-.09,0-.18,0-.26-4.88-.11-9.76-.2-14.65-.3H162.8l-9,.19V26.11l9,.19H284.89L299.06,26l-.09-.28-14.08-.29H162.8l-9,.19V23.55l9,.19H284.89l13.33-.27-.11-.32-13.22-.27H162.8l-9,.18V21l9,.19H284.89l12-.25a3.13,3.13,0,0,1-.22-.36l-11.79-.24H162.8l-9,.19V18.43l9,.19H284.89l10.5-.21a5,5,0,0,0-.28-.42h0l-10.21-.21H162.8l-9,.19V15.12Z" transform="translate(-21.63 -14.08)"/><path class="cls-3" d="M264.54,40.79h20.35l10.77.22-.44.43-10.33.21H162.8l-9-.19.84-.24,8.16-.43Z" transform="translate(-21.63 -14.08)"/><path class="cls-4" d="M264.54,38.24h20.35l13.51.28c0,.1-.07.2-.11.3l-13.4.28H162.8l-9-.19,1.27-.24,7.73-.42Z" transform="translate(-21.63 -14.08)"/><path class="cls-3" d="M264.54,35.68h20.35L299.2,36c0,.09-.05.18-.08.27l-14.23.29H162.8l-9-.66h0l9-.19Z" transform="translate(-21.63 -14.08)"/><path class="cls-3" d="M264.54,33.12h20.35l14.7.3a2.11,2.11,0,0,1,0,.25c-4.89.11-9.79.2-14.68.3H162.8l-9-.19h0l9-.66Z" transform="translate(-21.63 -14.08)"/><path class="cls-5" d="M264.54,30.56h20.35c4.92.1,9.84.19,14.76.3,0,.08,0,.17,0,.25l-14.77.31H162.8l-9-.19,1.45-.5,7.55-.16Z" transform="translate(-21.63 -14.08)"/><path class="cls-3" d="M264.54,28h20.35c4.89.1,9.77.19,14.65.3,0,.08,0,.17,0,.26l-14.67.3H162.8l-9-.19.84-.24L162.8,28Z" transform="translate(-21.63 -14.08)"/><path class="cls-3" d="M264.54,25.44h20.35l14.08.29.09.28-14.17.29H162.8l-8.16-.17-.84-.5,9-.19Z" transform="translate(-21.63 -14.08)"/><path class="cls-3" d="M264.54,22.89h20.35l13.22.27.11.32-13.33.27H162.8l-9-.19h0l9-.66Z" transform="translate(-21.63 -14.08)"/><path class="cls-3" d="M264.54,20.33h20.35l11.79.24a3.13,3.13,0,0,0,.22.36l-12,.25H162.8l-9-.19.84-.24,8.16-.42Z" transform="translate(-21.63 -14.08)"/><path class="cls-3" d="M264.54,17.77h20.35L295.1,18h0a5,5,0,0,1,.28.42l-10.5.21H162.8l-9-.19h0l9-.66Z" transform="translate(-21.63 -14.08)"/><path class="cls-6" d="M292.74,44a23.37,23.37,0,0,0,6.68-6.39,13.69,13.69,0,0,0,2.44-7.89,15.66,15.66,0,0,0-2.52-7.88,24.77,24.77,0,0,0-2.69-3.53,31.25,31.25,0,0,0-3.43-3.14,32.9,32.9,0,0,1,5.09,7,17.17,17.17,0,0,1,2.1,7.59,14.56,14.56,0,0,1-2,7.56,19.72,19.72,0,0,1-2.49,3.48A34.51,34.51,0,0,1,292.74,44Z" transform="translate(-21.63 -14.08)"/><path class="cls-7" d="M292.55,44a21.67,21.67,0,0,0,5.71-6.39,15.41,15.41,0,0,0,2.08-7.89,17.53,17.53,0,0,0-2.15-7.88,26,26,0,0,0-2.29-3.53A30,30,0,0,0,293,15.12a33.54,33.54,0,0,1,4.35,7,19.66,19.66,0,0,1,1.8,7.59,16.68,16.68,0,0,1-1.72,7.56,20.25,20.25,0,0,1-2.12,3.48A31.45,31.45,0,0,1,292.55,44Z" transform="translate(-21.63 -14.08)"/><path class="cls-10" d="M149.15,42.92H287.68c9,0,16.33-6,16.33-13.38s-7.32-13.38-16.33-13.38H149.15c-1.4,0-2.53-.47-2.53-1s1.13-1,2.53-1H287.68c10.4,0,18.87,6.94,18.87,15.46S298.08,45,287.68,45H149.15c-1.4,0-2.53-.46-2.53-1S147.75,42.92,149.15,42.92Z" transform="translate(-21.63 -14.08)"/><path class="cls-11" d="M264.08,95.16c8.56,0,15.5,7.7,15.5,17.2s-6.94,17.2-15.5,17.2H139.83v-3l8.27.22H260.29l9.5-.25.4-.51-9.9-.26H148.1l-8.27.23v-2.49l8.27.23H260.29l12.32-.33c0-.12.07-.24.1-.36l-12.42-.33H148.1l-8.27.22v-2.48l8.27.22H260.29l13.08-.35c0-.11.05-.22.07-.32q-6.57-.2-13.15-.35H148.1l-8.27.22v-2.48l8.27.22H260.29l13.5-.35a3,3,0,0,1,0-.31l-13.52-.36H148.1l-8.27.23v-2.49l8.27.23H260.29c4.53-.12,9-.23,13.57-.36v-.3l-13.57-.36H148.1l-8.27.23v-2.49l8.27.23H260.29c4.5-.12,9-.23,13.48-.36,0-.1,0-.22,0-.31l-13.47-.35H148.1l-8.27.22v-2.48l8.27.22H260.29l13-.34c0-.11-.05-.22-.07-.33l-12.95-.35H148.1l-8.27.23v-2.48l8.27.22H260.29l12.26-.32-.11-.38-12.15-.32H148.1l-8.27.23v-2.49l8.27.23H260.29l11-.3c-.07-.14-.14-.28-.2-.43l-10.84-.29H148.1l-8.27.22V99.11l8.27.22H260.29l9.65-.26a5.33,5.33,0,0,0-.26-.5v0l-9.39-.24H148.1l-8.27.22V95.16Z" transform="translate(-21.63 -14.08)"/><path class="cls-3" d="M241.59,125.79h18.7l9.9.26-.4.51-9.5.25H148.1l-8.27-.22.78-.29,7.49-.51Z" transform="translate(-21.63 -14.08)"/><path class="cls-4" d="M241.59,122.74h18.7l12.42.33c0,.12-.07.24-.1.36l-12.32.33H148.1l-8.27-.23,1.16-.28,7.11-.51Z" transform="translate(-21.63 -14.08)"/><path class="cls-3" d="M241.59,119.69h18.7q6.58.16,13.15.35c0,.1-.05.21-.07.32l-13.08.35H148.1l-8.27-.79h0l8.27-.22Z" transform="translate(-21.63 -14.08)"/><path class="cls-3" d="M241.59,116.63h18.7l13.52.36a3,3,0,0,0,0,.31l-13.5.35H148.1l-8.27-.22h0l8.27-.8Z" transform="translate(-21.63 -14.08)"/><path class="cls-5" d="M241.59,113.58h18.7l13.57.36v.3c-4.52.13-9,.24-13.57.36H148.1l-8.27-.23,1.33-.6,6.94-.19Z" transform="translate(-21.63 -14.08)"/><path class="cls-3" d="M241.59,110.53h18.7l13.47.35c0,.09,0,.21,0,.31-4.49.13-9,.24-13.48.36H148.1l-8.27-.23.78-.28,7.49-.51Z" transform="translate(-21.63 -14.08)"/><path class="cls-3" d="M241.59,107.47h18.7l12.95.35c0,.11.05.22.07.33l-13,.34H148.1l-7.49-.2-.78-.59,8.27-.23Z" transform="translate(-21.63 -14.08)"/><path class="cls-3" d="M241.59,104.42h18.7l12.15.32.11.38-12.26.32H148.1l-8.27-.22h0l8.27-.8Z" transform="translate(-21.63 -14.08)"/><path class="cls-3" d="M241.59,101.37h18.7l10.84.29c.06.15.13.29.2.43l-11,.3H148.1l-8.27-.23.78-.28,7.49-.51Z" transform="translate(-21.63 -14.08)"/><path class="cls-3" d="M241.59,98.32h18.7l9.39.24v0a5.33,5.33,0,0,1,.26.5l-9.65.26H148.1l-8.27-.22h0l8.27-.79Z" transform="translate(-21.63 -14.08)"/><path class="cls-12" d="M267.51,129.56a25.41,25.41,0,0,0,6.14-7.62,19.88,19.88,0,0,0,2.23-9.43,22.42,22.42,0,0,0-2.31-9.39,29.55,29.55,0,0,0-2.47-4.21A32.39,32.39,0,0,0,268,95.16a40.52,40.52,0,0,1,4.68,8.32,25.28,25.28,0,0,1,1.93,9,21.56,21.56,0,0,1-1.84,9,24.76,24.76,0,0,1-2.29,4.15A38.34,38.34,0,0,1,267.51,129.56Z" transform="translate(-21.63 -14.08)"/><path class="cls-7" d="M267.34,129.56a25,25,0,0,0,5.24-7.62,22.89,22.89,0,0,0,1.91-9.43,25.78,25.78,0,0,0-2-9.39,31.77,31.77,0,0,0-2.1-4.21,32.24,32.24,0,0,0-2.7-3.75,42.75,42.75,0,0,1,4,8.32,29.17,29.17,0,0,1,1.65,9,25.16,25.16,0,0,1-1.57,9,26.22,26.22,0,0,1-2,4.15A39.05,39.05,0,0,1,267.34,129.56Z" transform="translate(-21.63 -14.08)"/><path class="cls-13" d="M135.56,128.32h127.3c8.27,0,15-7.16,15-16s-6.73-16-15-16H135.56c-1.29,0-2.33-.55-2.33-1.23s1-1.24,2.33-1.24h127.3c9.56,0,17.33,8.27,17.33,18.44s-7.77,18.44-17.33,18.44H135.56c-1.29,0-2.33-.55-2.33-1.24S134.27,128.32,135.56,128.32Z" transform="translate(-21.63 -14.08)"/><path class="cls-14" d="M296.9,132.81c9.34,0,16.91,10.21,16.91,22.8s-7.57,22.79-16.91,22.79H161.26v-3.94l9,.29H292.76l10.36-.34.44-.67-10.8-.35H170.29l-9,.29v-3.29l9,.3H292.76q6.72-.21,13.44-.44l.12-.47-13.56-.44H170.29l-9,.3v-3.29l9,.29H292.76l14.27-.46c0-.15.06-.29.08-.43-4.78-.17-9.57-.31-14.35-.47H170.29l-9,.29v-3.29l9,.3H292.76q7.37-.23,14.73-.47c0-.14,0-.27,0-.41l-14.75-.47H170.29l-9,.3v-3.29l9,.29H292.76l14.81-.48c0-.13,0-.27,0-.4-4.93-.17-9.87-.32-14.8-.48H170.29l-9,.29v-3.29l9,.3H292.76q7.35-.22,14.71-.47c0-.14,0-.29,0-.41-4.9-.17-9.8-.31-14.7-.47H170.29l-9,.3v-3.29l9,.29H292.76L307,150l-.09-.44-14.12-.46H170.29l-9,.29v-3.29l9,.3H292.76l13.37-.43c0-.16-.07-.33-.11-.49l-13.26-.43H170.29l-9,.3V142.1l9,.29H292.76l12-.39c-.07-.19-.14-.38-.22-.58L292.76,141H170.29l-9,.29v-3.29l9,.3H292.76l10.53-.34c-.11-.28-.21-.51-.28-.66v0L292.76,137H170.29l-9,.3v-4.49Z" transform="translate(-21.63 -14.08)"/><path class="cls-3" d="M272.35,173.41h20.41l10.8.35-.44.67-10.36.34H170.29l-9-.29.85-.38,8.18-.67Z" transform="translate(-21.63 -14.08)"/><path class="cls-4" d="M272.35,169.36h20.41l13.56.44-.12.47q-6.72.24-13.44.44H170.29l-9-.3,1.27-.37,7.76-.68Z" transform="translate(-21.63 -14.08)"/><path class="cls-3" d="M272.35,165.32h20.41c4.78.16,9.57.3,14.35.47,0,.14-.05.28-.08.43l-14.27.46H170.29l-9-1h0l9-.29Z" transform="translate(-21.63 -14.08)"/><path class="cls-3" d="M272.35,161.27h20.41l14.75.47c0,.14,0,.27,0,.41q-7.37.25-14.73.47H170.29l-9-.3h0l9-1Z" transform="translate(-21.63 -14.08)"/><path class="cls-5" d="M272.35,157.23h20.41c4.93.16,9.87.31,14.8.48,0,.13,0,.27,0,.4l-14.81.48H170.29l-9-.29,1.46-.8,7.57-.25Z" transform="translate(-21.63 -14.08)"/><path class="cls-3" d="M272.35,153.18h20.41c4.9.16,9.8.3,14.7.47,0,.12,0,.27,0,.41q-7.35.25-14.71.47H170.29l-9-.3.85-.38,8.18-.67Z" transform="translate(-21.63 -14.08)"/><path class="cls-3" d="M272.35,149.14h20.41l14.12.46.09.44-14.21.46H170.29l-8.18-.27-.85-.78,9-.29Z" transform="translate(-21.63 -14.08)"/><path class="cls-3" d="M272.35,145.09h20.41l13.26.43c0,.16.07.33.11.49l-13.37.43H170.29l-9-.3h0l9-1Z" transform="translate(-21.63 -14.08)"/><path class="cls-3" d="M272.35,141.05h20.41l11.82.39c.08.2.15.39.22.58l-12,.39H170.29l-9-.29.85-.38,8.18-.67Z" transform="translate(-21.63 -14.08)"/><path class="cls-3" d="M272.35,137h20.41l10.24.33v0c.07.15.17.38.28.66l-10.53.34H170.29l-9-.3h0l9-1.05Z" transform="translate(-21.63 -14.08)"/><path class="cls-6" d="M300.63,178.4a33,33,0,0,0,6.7-10.1,31.07,31.07,0,0,0,2.45-12.49,35.53,35.53,0,0,0-2.52-12.45,39.26,39.26,0,0,0-6.15-10.55,58.15,58.15,0,0,1,5.12,11,40.19,40.19,0,0,1,2.1,12,34.14,34.14,0,0,1-2,11.95,35,35,0,0,1-2.5,5.5A49,49,0,0,1,300.63,178.4Z" transform="translate(-21.63 -14.08)"/><path class="cls-7" d="M300.45,178.4a34.32,34.32,0,0,0,5.72-10.1,35.77,35.77,0,0,0,2.08-12.49,40.41,40.41,0,0,0-2.15-12.45,46.94,46.94,0,0,0-2.3-5.58,46.44,46.44,0,0,0-2.94-5,63.77,63.77,0,0,1,4.36,11,46.09,46.09,0,0,1,1.8,12,39.54,39.54,0,0,1-1.72,11.95,38.68,38.68,0,0,1-2.13,5.5A55.25,55.25,0,0,1,300.45,178.4Z" transform="translate(-21.63 -14.08)"/><path class="cls-15" d="M156.6,176.76h139c9,0,16.38-9.49,16.38-21.15s-7.35-21.15-16.38-21.15h-139c-1.41,0-2.54-.74-2.54-1.65s1.13-1.64,2.54-1.64h139c10.43,0,18.92,11,18.92,24.44S306,180,295.56,180h-139c-1.41,0-2.54-.73-2.54-1.64S155.19,176.76,156.6,176.76Z" transform="translate(-21.63 -14.08)"/><path class="cls-16" d="M284.73,181.26a20.7,20.7,0,0,1,0,41.39h-162v-3.59l10.79.27H279.78l12.39-.31.52-.6-12.91-.32H133.49l-10.79.27v-3l10.79.27H279.78q8-.18,16.07-.39c0-.15.09-.29.13-.43l-16.2-.4H133.49l-10.79.27v-3l10.79.27H279.78q8.54-.19,17.06-.42l.09-.38q-8.58-.23-17.15-.42H133.49L122.7,211v-3l10.79.27H279.78l17.6-.43c0-.12,0-.25,0-.37l-17.62-.43H133.49l-10.79.28v-3l10.79.27H279.78c5.9-.15,11.8-.28,17.7-.44,0-.12,0-.24,0-.36l-17.69-.43H133.49l-10.79.27v-3l10.79.27H279.78c5.86-.14,11.72-.27,17.58-.43,0-.12,0-.26,0-.36-5.85-.16-11.7-.29-17.56-.43H133.49L122.7,200v-3l10.79.27H279.78l17-.41c0-.14-.07-.27-.1-.4l-16.88-.42H133.49l-10.79.27v-3l10.79.27H279.78l16-.39c-.05-.15-.09-.3-.13-.45-5.28-.14-10.56-.26-15.85-.39H133.49l-10.79.27v-3l10.79.27H279.78l14.39-.36c-.09-.17-.17-.34-.26-.52l-14.13-.35H133.49L122.7,189v-3l10.79.27H279.78l12.58-.3c-.13-.26-.25-.47-.33-.61h0q-6.12-.17-12.24-.3H133.49l-10.79.27v-4.07Z" transform="translate(-21.63 -14.08)"/><path class="cls-3" d="M255.4,218.11h24.38l12.91.32-.52.6-12.39.31H133.49l-10.79-.27,1-.34,9.78-.61Z" transform="translate(-21.63 -14.08)"/><path class="cls-4" d="M255.4,214.44h24.38l16.2.4c0,.14-.09.28-.13.43q-8,.21-16.07.39H133.49l-10.79-.27,1.52-.34,9.27-.61Z" transform="translate(-21.63 -14.08)"/><path class="cls-3" d="M255.4,210.77h24.38q8.58.19,17.15.42l-.09.38q-8.54.23-17.06.42H133.49l-10.79-1h0l10.79-.27Z" transform="translate(-21.63 -14.08)"/><path class="cls-3" d="M255.4,207.09h24.38l17.62.43c0,.12,0,.25,0,.37l-17.6.43H133.49l-10.79-.27h0l10.79-1Z" transform="translate(-21.63 -14.08)"/><path class="cls-5" d="M255.4,203.42h24.38l17.69.43c0,.12,0,.24,0,.36-5.9.16-11.8.29-17.7.44H133.49l-10.79-.27,1.74-.72,9.05-.23Z" transform="translate(-21.63 -14.08)"/><path class="cls-3" d="M255.4,199.75h24.38c5.86.14,11.71.27,17.56.43,0,.1,0,.24,0,.36-5.86.16-11.72.29-17.58.43H133.49l-10.79-.27,1-.34,9.78-.61Z" transform="translate(-21.63 -14.08)"/><path class="cls-3" d="M255.4,196.08h24.38l16.88.42c0,.13.07.26.1.4l-17,.41H133.49l-9.78-.24-1-.71,10.79-.27Z" transform="translate(-21.63 -14.08)"/><path class="cls-3" d="M255.4,192.4h24.38c5.29.13,10.57.25,15.85.39,0,.15.08.3.13.45l-16,.39H133.49l-10.79-.27h0l10.79-1Z" transform="translate(-21.63 -14.08)"/><path class="cls-3" d="M255.4,188.73h24.38l14.13.35c.09.18.17.35.26.52l-14.39.36H133.49l-10.79-.27,1-.34,9.78-.61Z" transform="translate(-21.63 -14.08)"/><path class="cls-3" d="M255.4,185.06h24.38q6.12.13,12.24.3h0c.08.14.2.35.33.61l-12.58.3H133.49L122.7,186h0l10.79-.95Z" transform="translate(-21.63 -14.08)"/><path class="cls-6" d="M289.19,222.65a31.1,31.1,0,0,0,8-9.18,22.31,22.31,0,0,0,2.91-11.33,25.55,25.55,0,0,0-3-11.31,36.34,36.34,0,0,0-3.22-5.06,39.91,39.91,0,0,0-4.12-4.51,47.81,47.81,0,0,1,6.11,10,28.65,28.65,0,0,1,2.52,10.89A24.5,24.5,0,0,1,296,213a29.69,29.69,0,0,1-3,5A47.48,47.48,0,0,1,289.19,222.65Z" transform="translate(-21.63 -14.08)"/><path class="cls-7" d="M289,222.65a30.13,30.13,0,0,0,6.83-9.18,25.4,25.4,0,0,0,2.49-11.33,29.06,29.06,0,0,0-2.57-11.31,37.4,37.4,0,0,0-2.75-5.06,38.84,38.84,0,0,0-3.51-4.51,50.16,50.16,0,0,1,5.21,10,32.7,32.7,0,0,1,2.15,10.89A27.94,27.94,0,0,1,294.77,213a30.87,30.87,0,0,1-2.55,5A46.15,46.15,0,0,1,289,222.65Z" transform="translate(-21.63 -14.08)"/><path class="cls-8" d="M117.13,221.16h166a19.21,19.21,0,1,0,0-38.41h-166c-1.67,0-3-.67-3-1.49s1.36-1.5,3-1.5h166a22.19,22.19,0,1,1,0,44.38h-166c-1.67,0-3-.67-3-1.49S115.46,221.16,117.13,221.16Z" transform="translate(-21.63 -14.08)"/><path class="cls-17" d="M320.83,226.46c11.47,0,20.76,10.21,20.76,22.8s-9.29,22.79-20.76,22.79H154.41v-3.94l11.08.29H315.76l12.71-.34.54-.67-13.25-.35H165.49l-11.08.3v-3.3l11.08.3H315.76q8.24-.21,16.49-.44l.14-.47L315.76,263H165.49l-11.08.3V260l11.08.29H315.76l17.51-.46c0-.15.06-.29.1-.43-5.87-.17-11.74-.31-17.61-.47H165.49l-11.08.29V256l11.08.3H315.76q9-.22,18.07-.47c0-.14,0-.27,0-.41-6-.17-12.06-.31-18.09-.47H165.49l-11.08.3v-3.29l11.08.29H315.76l18.17-.48c0-.13,0-.27,0-.4q-9.07-.25-18.16-.48H165.49l-11.08.29v-3.29l11.08.3H315.76q9-.23,18.05-.47c0-.14,0-.29,0-.41-6-.17-12-.31-18-.47H165.49l-11.08.3v-3.29l11.08.29H315.76l17.43-.46c0-.15-.07-.29-.1-.44l-17.33-.45H165.49l-11.08.29v-3.29l11.08.3H315.76l16.41-.43c-.05-.16-.09-.33-.14-.49l-16.27-.43H165.49l-11.08.3v-3.29l11.08.3H315.76l14.77-.4c-.09-.18-.17-.37-.27-.57l-14.5-.38H165.49l-11.08.29V231.7l11.08.3H315.76l12.92-.34c-.14-.28-.26-.51-.35-.67h0l-12.56-.33H165.49l-11.08.3v-4.49Z" transform="translate(-21.63 -14.08)"/><path class="cls-18" d="M290.71,267.06h25.05l13.25.35-.54.67-12.71.34H165.49l-11.08-.29,1.05-.38,10-.67Z" transform="translate(-21.63 -14.08)"/><path class="cls-19" d="M290.71,263h25.05l16.63.44-.14.47q-8.25.24-16.49.44H165.49l-11.08-.3,1.57-.37,9.51-.68Z" transform="translate(-21.63 -14.08)"/><path class="cls-18" d="M290.71,259h25.05c5.87.16,11.74.3,17.61.47,0,.14-.07.28-.1.43l-17.51.46H165.49l-11.08-1.05h0l11.08-.29Z" transform="translate(-21.63 -14.08)"/><path class="cls-18" d="M290.71,254.92h25.05c6,.16,12.06.3,18.09.47,0,.14,0,.27,0,.41q-9,.25-18.07.47H165.49l-11.08-.3h0l11.08-1.05Z" transform="translate(-21.63 -14.08)"/><path class="cls-20" d="M290.71,250.88h25.05q9.08.24,18.16.48c0,.13,0,.27,0,.4l-18.17.48H165.49l-11.08-.29,1.79-.8,9.29-.25Z" transform="translate(-21.63 -14.08)"/><path class="cls-18" d="M290.71,246.83h25.05c6,.16,12,.3,18,.47,0,.12,0,.27,0,.41q-9,.25-18.05.47H165.49l-11.08-.3,1.05-.37,10-.68Z" transform="translate(-21.63 -14.08)"/><path class="cls-18" d="M290.71,242.79h25.05l17.33.45c0,.15.07.29.1.44l-17.43.46H165.49l-10-.26-1.05-.79,11.08-.29Z" transform="translate(-21.63 -14.08)"/><path class="cls-18" d="M290.71,238.74h25.05l16.27.43c.05.16.09.33.14.49l-16.41.43H165.49l-11.08-.3h0l11.08-1Z" transform="translate(-21.63 -14.08)"/><path class="cls-18" d="M290.71,234.7h25.05l14.5.38c.1.2.18.39.27.57l-14.77.4H165.49l-11.08-.3,1.05-.38,10-.67Z" transform="translate(-21.63 -14.08)"/><path class="cls-18" d="M290.71,230.65h25.05l12.56.33h0c.09.16.21.39.35.67l-12.92.34H165.49l-11.08-.3h0l11.08-1Z" transform="translate(-21.63 -14.08)"/><path class="cls-21" d="M325.42,272.05a33.62,33.62,0,0,0,8.22-10.1,26.22,26.22,0,0,0,3-12.49,29.69,29.69,0,0,0-3.1-12.45,39.77,39.77,0,0,0-3.31-5.58,45.42,45.42,0,0,0-4.22-5,54.58,54.58,0,0,1,6.27,11,33.31,33.31,0,0,1,2.58,12,28.54,28.54,0,0,1-2.46,11.95,33,33,0,0,1-3.07,5.5A51.24,51.24,0,0,1,325.42,272.05Z" transform="translate(-21.63 -14.08)"/><path class="cls-7" d="M325.19,272.05a33.2,33.2,0,0,0,7-10.1,30,30,0,0,0,2.56-12.49A33.94,33.94,0,0,0,332.12,237a42.26,42.26,0,0,0-2.82-5.58,43.81,43.81,0,0,0-3.61-5,57.33,57.33,0,0,1,5.36,11,38.5,38.5,0,0,1,2.2,12,32.69,32.69,0,0,1-2.1,11.95,34.65,34.65,0,0,1-2.62,5.5A52.12,52.12,0,0,1,325.19,272.05Z" transform="translate(-21.63 -14.08)"/><path class="cls-22" d="M148.7,270.41H319.19c11.09,0,20.1-9.49,20.1-21.15s-9-21.16-20.1-21.16H148.7c-1.73,0-3.12-.73-3.12-1.64s1.39-1.64,3.12-1.64H319.19c12.81,0,23.22,11,23.22,24.44S332,273.69,319.19,273.69H148.7c-1.73,0-3.12-.73-3.12-1.64S147,270.41,148.7,270.41Z" transform="translate(-21.63 -14.08)"/><path class="cls-23" d="M302.12,275.71c11.47,0,20.76,10.2,20.76,22.79s-9.29,22.79-20.76,22.79H135.7v-3.94l11.08.29H297l12.72-.33.54-.68L297,316.3H146.78l-11.08.3v-3.3l11.08.3H297q8.25-.21,16.5-.44c0-.15.09-.31.14-.47L297,312.25H146.78l-11.08.3v-3.29l11.08.3H297l17.52-.46.09-.43c-5.87-.17-11.74-.31-17.61-.46H146.78l-11.08.3v-3.3l11.08.3H297q9-.22,18.08-.47c0-.14,0-.27,0-.4q-9-.25-18.1-.48H146.78l-11.08.3v-3.29l11.08.29H297l18.18-.48c0-.13,0-.27,0-.4q-9.09-.25-18.17-.47H146.78l-11.08.3v-3.3l11.08.3H297q9-.23,18.06-.47c0-.14,0-.29,0-.41l-18-.47H146.78l-11.08.3v-3.29l11.08.3H297c5.81-.15,11.63-.29,17.44-.46,0-.14-.07-.29-.1-.44L297,292H146.78l-11.08.3V289l11.08.3H297l16.41-.43c0-.16-.08-.33-.13-.49L297,288H146.78l-11.08.3V285l11.08.3H297l14.78-.39-.27-.58L297,283.94H146.78l-11.08.29v-3.29l11.08.3H297L310,280.9c-.14-.28-.26-.51-.35-.66v0L297,279.89H146.78l-11.08.3v-4.48Z" transform="translate(-21.63 -14.08)"/><path class="cls-3" d="M272,316.3h25l13.26.34-.54.68-12.72.33H146.78l-11.08-.29,1.05-.38,10-.67Z" transform="translate(-21.63 -14.08)"/><path class="cls-4" d="M272,312.25h25l16.64.44c-.05.16-.09.32-.14.47q-8.25.24-16.5.44H146.78l-11.08-.3,1.57-.37,9.51-.68Z" transform="translate(-21.63 -14.08)"/><path class="cls-3" d="M272,308.21h25c5.87.15,11.74.29,17.61.46l-.09.43-17.52.46H146.78l-11.08-1.05h0l11.08-.3Z" transform="translate(-21.63 -14.08)"/><path class="cls-3" d="M272,304.16h25q9.06.24,18.1.48c0,.13,0,.26,0,.4q-9,.25-18.08.47H146.78l-11.08-.3h0l11.08-1Z" transform="translate(-21.63 -14.08)"/><path class="cls-5" d="M272,300.12h25q9.09.22,18.17.47c0,.13,0,.27,0,.4l-18.18.48H146.78l-11.08-.29,1.79-.8,9.29-.25Z" transform="translate(-21.63 -14.08)"/><path class="cls-3" d="M272,296.07h25l18,.47c0,.12,0,.27,0,.41q-9,.26-18.06.47H146.78l-11.08-.3,1.05-.37,10-.68Z" transform="translate(-21.63 -14.08)"/><path class="cls-3" d="M272,292h25l17.34.45c0,.15.07.3.1.44-5.81.17-11.63.31-17.44.46H146.78l-10-.27-1-.78,11.08-.3Z" transform="translate(-21.63 -14.08)"/><path class="cls-3" d="M272,288h25l16.28.43c.05.16.09.33.13.49l-16.41.43H146.78L135.7,289h0l11.08-1Z" transform="translate(-21.63 -14.08)"/><path class="cls-3" d="M272,283.94h25l14.51.38.27.58-14.78.39H146.78L135.7,285l1.05-.38,10-.67Z" transform="translate(-21.63 -14.08)"/><path class="cls-3" d="M272,279.89h25l12.57.33v0c.09.15.21.38.35.66l-12.93.34H146.78l-11.08-.3h0l11.08-1.05Z" transform="translate(-21.63 -14.08)"/><path class="cls-6" d="M306.7,321.29a33.51,33.51,0,0,0,8.23-10.1,26.21,26.21,0,0,0,3-12.48,29.85,29.85,0,0,0-3.1-12.46,41.37,41.37,0,0,0-3.31-5.58,44.39,44.39,0,0,0-4.22-5,54.24,54.24,0,0,1,6.27,11,33.31,33.31,0,0,1,2.58,12,28.54,28.54,0,0,1-2.46,11.95,33,33,0,0,1-3.07,5.5A49.88,49.88,0,0,1,306.7,321.29Z" transform="translate(-21.63 -14.08)"/><path class="cls-7" d="M306.48,321.29a33.2,33.2,0,0,0,7-10.1,30,30,0,0,0,2.56-12.48,34,34,0,0,0-2.65-12.46,42.89,42.89,0,0,0-2.82-5.58,44,44,0,0,0-3.61-5,56.35,56.35,0,0,1,5.35,11,38.22,38.22,0,0,1,2.21,12,32.69,32.69,0,0,1-2.1,11.95,34.65,34.65,0,0,1-2.62,5.5A52.12,52.12,0,0,1,306.48,321.29Z" transform="translate(-21.63 -14.08)"/><path class="cls-8" d="M130,319.65H300.48c11.08,0,20.1-9.49,20.1-21.15s-9-21.15-20.1-21.15H130c-1.73,0-3.12-.74-3.12-1.64s1.39-1.65,3.12-1.65H300.48c12.81,0,23.22,11,23.22,24.44s-10.41,24.44-23.22,24.44H130c-1.73,0-3.12-.74-3.12-1.65S128.26,319.65,130,319.65Z" transform="translate(-21.63 -14.08)"/><path class="cls-24" d="M313.65,328.15c12.21,0,22.12,14.52,22.12,32.44S325.86,393,313.65,393H136.28V387.4l11.81.43H308.23l13.56-.47.57-1-14.13-.49H148.09l-11.81.43v-4.69l11.81.42H308.23q8.79-.3,17.59-.63c0-.22.09-.44.14-.67l-17.73-.63H148.09l-11.81.42v-4.69l11.81.43H308.23q9.33-.31,18.67-.66c0-.2.07-.4.1-.6q-9.37-.36-18.77-.66H148.09l-11.81.42v-4.68l11.81.43H308.23c6.42-.23,12.84-.44,19.27-.68,0-.19,0-.38,0-.57-6.43-.24-12.86-.45-19.29-.68H148.09l-11.81.42v-4.69l11.81.42H308.23c6.46-.23,12.92-.44,19.37-.68,0-.19,0-.38,0-.56-6.45-.25-12.9-.46-19.36-.68H148.09l-11.81.42v-4.68l11.81.42H308.23c6.42-.23,12.83-.44,19.24-.68,0-.2,0-.41,0-.58-6.41-.24-12.82-.45-19.23-.67H148.09l-11.81.43v-4.69l11.81.43H308.23c6.2-.22,12.39-.42,18.59-.65,0-.21-.08-.42-.11-.63-6.16-.23-12.32-.43-18.48-.65H148.09l-11.81.42v-4.69l11.81.43H308.23c5.83-.2,11.66-.39,17.49-.61-.05-.24-.09-.47-.14-.71l-17.35-.6H148.09l-11.81.43v-4.69l11.81.42H308.23l15.75-.56c-.09-.26-.19-.53-.28-.82l-15.47-.55H148.09l-11.81.43v-4.68l11.81.42H308.23l13.77-.48c-.14-.4-.27-.73-.36-.95v0l-13.4-.47H148.09l-11.81.43v-6.39Z" transform="translate(-21.63 -14.08)"/><path class="cls-3" d="M281.54,386.82h26.69l14.13.26-.57.5-13.56.25H148.09l-11.81-.22,1.11-.29,10.7-.5Z" transform="translate(-21.63 -14.08)"/><path class="cls-4" d="M281.54,383.77h26.69l17.73.33c0,.12-.1.23-.14.35q-8.79.18-17.59.33H148.09l-11.81-.22,1.67-.29,10.14-.5Z" transform="translate(-21.63 -14.08)"/><path class="cls-3" d="M281.54,380.72h26.69q9.39.16,18.77.35c0,.1-.07.21-.1.32l-18.67.34H148.09l-11.81-.79h0l11.81-.22Z" transform="translate(-21.63 -14.08)"/><path class="cls-3" d="M281.54,377.67h26.69l19.29.35c0,.11,0,.21,0,.31q-9.64.19-19.27.35H148.09l-11.81-.22h0l11.81-.79Z" transform="translate(-21.63 -14.08)"/><path class="cls-5" d="M281.54,374.62h26.69q9.69.18,19.36.36c0,.1,0,.2,0,.3l-19.37.36H148.09l-11.81-.22,1.91-.6,9.9-.19Z" transform="translate(-21.63 -14.08)"/><path class="cls-3" d="M281.54,371.57h26.69l19.23.36c0,.09,0,.2,0,.3q-9.62.19-19.24.36H148.09l-11.81-.23,1.11-.28,10.7-.51Z" transform="translate(-21.63 -14.08)"/><path class="cls-3" d="M281.54,368.52h26.69l18.48.34c0,.11.07.22.11.33-6.2.13-12.39.23-18.59.35H148.09l-10.7-.21-1.11-.59,11.81-.22Z" transform="translate(-21.63 -14.08)"/><path class="cls-3" d="M281.54,365.47h26.69l17.35.32c.05.13.09.25.14.37l-17.49.33H148.09l-11.81-.23h0l11.81-.79Z" transform="translate(-21.63 -14.08)"/><path class="cls-3" d="M281.54,362.42h26.69l15.47.29c.09.15.19.3.28.43q-7.87.17-15.75.3H148.09l-11.81-.23,1.11-.28,10.7-.51Z" transform="translate(-21.63 -14.08)"/><path class="cls-3" d="M281.54,359.37h26.69l13.4.25h0c.09.12.22.29.36.51l-13.77.25H148.09l-11.81-.23h0l11.81-.79Z" transform="translate(-21.63 -14.08)"/><path class="cls-3" d="M281.54,358.91h26.69c4.71.09,13.94.71,18.65.8-.19.17-4.9-.2-5.09,0l-13.56.25H148.09l-11.81-.23,1.11-.28,10.7-.51Z" transform="translate(-21.63 -14.08)"/><path class="cls-4" d="M281.54,355.86h26.69l17.73.34a3.65,3.65,0,0,0-.14.35q-8.79.18-17.59.33H148.09l-11.81-.22,1.67-.29,10.14-.51Z" transform="translate(-21.63 -14.08)"/><path class="cls-3" d="M281.54,352.81h26.69l18.77.35c0,.11-.07.22-.1.32q-9.33.19-18.67.35H148.09L136.28,353h0l11.81-.23Z" transform="translate(-21.63 -14.08)"/><path class="cls-3" d="M281.54,349.77h26.69l19.29.36c0,.1,0,.2,0,.3l-19.27.36H148.09l-11.81-.22h0l11.81-.79Z" transform="translate(-21.63 -14.08)"/><path class="cls-5" d="M281.54,346.71h26.69q9.69.18,19.36.36c0,.1,0,.2,0,.3q-9.68.19-19.37.36H148.09l-11.81-.22,1.91-.61,9.9-.19Z" transform="translate(-21.63 -14.08)"/><path class="cls-3" d="M281.54,343.67h26.69l19.23.36c0,.09,0,.2,0,.31l-19.24.36H148.09l-11.81-.22,1.11-.29,10.7-.5Z" transform="translate(-21.63 -14.08)"/><path class="cls-3" d="M281.54,340.62h26.69l18.48.34c0,.11.07.22.11.33l-18.59.35H148.09l-10.7-.2-1.11-.59,11.81-.22Z" transform="translate(-21.63 -14.08)"/><path class="cls-3" d="M281.54,337.57h26.69l17.35.32c.05.12.09.25.14.37l-17.49.33H148.09l-11.81-.23h0l11.81-.79Z" transform="translate(-21.63 -14.08)"/><path class="cls-3" d="M281.54,334.52h26.69l15.47.29c.09.15.19.29.28.43l-15.75.3H148.09l-11.81-.22,1.11-.28,10.7-.51Z" transform="translate(-21.63 -14.08)"/><path class="cls-3" d="M281.54,331.47h26.69l13.4.25h0c.09.11.22.29.36.5l-13.77.26H148.09l-11.81-.23h0l11.81-.79Z" transform="translate(-21.63 -14.08)"/><path class="cls-6" d="M318.53,393a49.9,49.9,0,0,0,8.76-14.91,50.84,50.84,0,0,0,3.2-18.43,57.84,57.84,0,0,0-3.3-18.38,69.89,69.89,0,0,0-3.52-8.24,64.38,64.38,0,0,0-4.51-7.33A91.75,91.75,0,0,1,325.84,342a66.06,66.06,0,0,1,2.76,17.71A56.3,56.3,0,0,1,326,377.36a57,57,0,0,1-3.27,8.11A77.68,77.68,0,0,1,318.53,393Z" transform="translate(-21.63 -14.08)"/><path class="cls-7" d="M318.28,393a52.1,52.1,0,0,0,7.49-14.91,59.11,59.11,0,0,0,2.73-18.43,67.39,67.39,0,0,0-2.82-18.38,75.64,75.64,0,0,0-3-8.24,67.47,67.47,0,0,0-3.85-7.33A101.56,101.56,0,0,1,324.53,342a76.31,76.31,0,0,1,2.35,17.71,65.57,65.57,0,0,1-2.24,17.65,63.44,63.44,0,0,1-2.79,8.11A80.46,80.46,0,0,1,318.28,393Z" transform="translate(-21.63 -14.08)"/><path class="cls-25" d="M130.19,390.6H311.9c11.81,0,21.42-14,21.42-31.22s-9.61-31.23-21.42-31.23H130.19c-1.84,0-3.32-1.08-3.32-2.42s1.48-2.42,3.32-2.42H311.9c13.64,0,24.74,16.18,24.74,36.07s-11.1,36.06-24.74,36.06H130.19c-1.84,0-3.32-1.08-3.32-2.42S128.35,390.6,130.19,390.6Z" transform="translate(-21.63 -14.08)"/><path class="cls-26" d="M303.75,396.47c12.65,0,21.35,6.37,21.35,14.23s-8.7,14.23-21.35,14.23H120.1v-2.47l12.22.19H298.15l14-.21.6-.42-14.63-.21H132.32L120.1,422v-2.05l12.22.19H298.15l18.21-.28c0-.1.1-.19.15-.29l-18.36-.28H132.32l-12.22.19v-2.06l12.22.19H298.15l19.33-.29c0-.09.07-.18.1-.26q-9.7-.17-19.43-.29H132.32l-12.22.18v-2.05l12.22.18H298.15q10-.13,20-.29a2,2,0,0,1,0-.25q-10-.16-20-.3H132.32l-12.22.19v-2.06l12.22.19H298.15l20.06-.3c0-.08,0-.16,0-.25l-20.05-.29H132.32l-12.22.18v-2.05l12.22.18H298.15l19.92-.3a1.81,1.81,0,0,0,0-.25q-9.94-.17-19.9-.3H132.32l-12.22.19v-2.06l12.22.19H298.15l19.24-.28a2.33,2.33,0,0,0-.11-.28l-19.13-.28H132.32l-12.22.18v-2l12.22.18H298.15l18.11-.28-.15-.3-18-.27H132.32l-12.22.19v-2.06l12.22.19H298.15l16.31-.25-.3-.35-16-.24H132.32l-12.22.18v-2.05l12.22.18H298.15l14.26-.21-.38-.41h0l-13.87-.21H132.32l-12.22.19v-2.8Z" transform="translate(-21.63 -14.08)"/><path class="cls-3" d="M270.51,421.81h27.64l14.63.21-.6.42-14,.21H132.32l-12.22-.19,1.15-.23,11.07-.42Z" transform="translate(-21.63 -14.08)"/><path class="cls-4" d="M270.51,419.28h27.64l18.36.28c-.05.1-.11.19-.15.29l-18.21.28H132.32l-12.22-.19,1.73-.24,10.49-.42Z" transform="translate(-21.63 -14.08)"/><path class="cls-3" d="M270.51,416.76h27.64q9.72.14,19.43.29c0,.08-.07.17-.1.26l-19.33.29H132.32l-12.22-.66h0l12.22-.18Z" transform="translate(-21.63 -14.08)"/><path class="cls-3" d="M270.51,414.23h27.64q10,.15,20,.3a2,2,0,0,0,0,.25q-10,.17-20,.29H132.32l-12.22-.18h0l12.22-.66Z" transform="translate(-21.63 -14.08)"/><path class="cls-5" d="M270.51,411.71h27.64l20.05.29c0,.09,0,.17,0,.25l-20.06.3H132.32l-12.22-.19,2-.5,10.25-.15Z" transform="translate(-21.63 -14.08)"/><path class="cls-3" d="M270.51,409.18h27.64q10,.15,19.9.3a1.81,1.81,0,0,1,0,.25l-19.92.3H132.32l-12.22-.18,1.15-.24,11.07-.42Z" transform="translate(-21.63 -14.08)"/><path class="cls-3" d="M270.51,406.66h27.64l19.13.28a2.33,2.33,0,0,1,.11.28l-19.24.28H132.32l-11.07-.17-1.15-.49,12.22-.18Z" transform="translate(-21.63 -14.08)"/><path class="cls-3" d="M270.51,404.13h27.64l18,.27.15.3-18.11.28H132.32l-12.22-.18h0l12.22-.66Z" transform="translate(-21.63 -14.08)"/><path class="cls-3" d="M270.51,401.61h27.64l16,.24.3.35-16.31.25H132.32l-12.22-.19,1.15-.23,11.07-.42Z" transform="translate(-21.63 -14.08)"/><path class="cls-3" d="M270.51,399.08h27.64l13.87.21h0l.38.41-14.26.21H132.32l-12.22-.18h0l12.22-.66Z" transform="translate(-21.63 -14.08)"/><path class="cls-27" d="M308.81,424.93a29.78,29.78,0,0,0,9.08-6.31,11.09,11.09,0,0,0,3.3-7.8,12.65,12.65,0,0,0-3.41-7.77,28.29,28.29,0,0,0-3.65-3.48,39.41,39.41,0,0,0-4.67-3.1,35.51,35.51,0,0,1,6.92,6.88,13.66,13.66,0,0,1,2.86,7.49,11.63,11.63,0,0,1-2.73,7.46,21.42,21.42,0,0,1-3.38,3.44A44.37,44.37,0,0,1,308.81,424.93Z" transform="translate(-21.63 -14.08)"/><path class="cls-7" d="M308.56,424.93a25.84,25.84,0,0,0,7.75-6.31,12.14,12.14,0,0,0,2.82-7.8,13.78,13.78,0,0,0-2.92-7.77,25.71,25.71,0,0,0-3.11-3.48,34.58,34.58,0,0,0-4-3.1,33.29,33.29,0,0,1,5.9,6.88,15.09,15.09,0,0,1,2.44,7.49,12.88,12.88,0,0,1-2.32,7.46,20.77,20.77,0,0,1-2.9,3.44A37.65,37.65,0,0,1,308.56,424.93Z" transform="translate(-21.63 -14.08)"/><path class="cls-28" d="M113.79,423.9H302c12.22,0,20.61-5.92,20.61-13.2s-8.39-13.21-20.61-13.21H113.79c-1.9,0-3.44-.46-3.44-1s1.54-1,3.44-1H302c14.12,0,24.05,6.85,24.05,15.26S316.07,426,302,426H113.79c-1.9,0-3.44-.46-3.44-1S111.89,423.9,113.79,423.9Z" transform="translate(-21.63 -14.08)"/><path class="cls-29" d="M306.56,427.78a20.7,20.7,0,0,1,0,41.39h-162v-3.58l10.78.27h146.3l12.39-.3c.17-.21.34-.41.52-.61l-12.91-.32H155.31l-10.78.28v-3l10.78.28h146.3l16.07-.4c0-.14.08-.29.13-.43l-16.2-.4H155.31l-10.78.27v-3l10.78.27h146.3l17.06-.41.09-.39q-8.58-.22-17.15-.42H155.31l-10.78.27v-3l10.78.27h146.3c5.87-.14,11.73-.27,17.6-.43,0-.12,0-.24,0-.36-5.87-.16-11.74-.29-17.62-.44H155.31l-10.78.27v-3l10.78.27h146.3l17.7-.43c0-.12,0-.25,0-.36q-8.85-.24-17.69-.44H155.31l-10.78.27v-3l10.78.27h146.3l17.58-.43c0-.13,0-.26,0-.37-5.85-.16-11.7-.29-17.56-.43H155.31l-10.78.27v-3l10.78.27h146.3q8.49-.19,17-.41c0-.13-.07-.27-.1-.4q-8.44-.22-16.88-.41H155.31l-10.78.27v-3l10.78.27h146.3l16-.39c0-.15-.09-.3-.13-.45l-15.85-.39H155.31l-10.78.27v-3l10.78.27h146.3l14.39-.36c-.09-.16-.17-.34-.26-.52l-14.13-.35H155.31l-10.78.27v-3l10.78.26h146.3l12.58-.31c-.13-.26-.25-.47-.33-.61h0l-12.24-.3H155.31l-10.78.27v-4.07Z" transform="translate(-21.63 -14.08)"/><path class="cls-18" d="M277.23,464.63h24.38l12.91.32c-.18.2-.35.4-.52.61l-12.39.3H155.31l-10.78-.27,1-.34,9.77-.62Z" transform="translate(-21.63 -14.08)"/><path class="cls-19" d="M277.23,461h24.38l16.2.4c-.05.14-.09.29-.13.43l-16.07.4H155.31l-10.78-.28,1.52-.34,9.26-.61Z" transform="translate(-21.63 -14.08)"/><path class="cls-18" d="M277.23,457.29h24.38q8.58.19,17.15.42l-.09.39-17.06.41H155.31l-10.78-.95h0l10.78-.27Z" transform="translate(-21.63 -14.08)"/><path class="cls-18" d="M277.23,453.62h24.38c5.88.15,11.75.28,17.62.44,0,.12,0,.24,0,.36-5.87.16-11.73.29-17.6.43H155.31l-10.78-.27h0l10.78-.95Z" transform="translate(-21.63 -14.08)"/><path class="cls-20" d="M277.23,449.94h24.38q8.85.21,17.69.44c0,.11,0,.24,0,.36l-17.7.43H155.31l-10.78-.27,1.74-.73,9-.23Z" transform="translate(-21.63 -14.08)"/><path class="cls-18" d="M277.23,446.27h24.38c5.86.14,11.71.27,17.56.43,0,.11,0,.24,0,.37l-17.58.43H155.31l-10.78-.27,1-.34,9.77-.61Z" transform="translate(-21.63 -14.08)"/><path class="cls-18" d="M277.23,442.6h24.38q8.44.19,16.88.41c0,.13.07.27.1.4q-8.49.22-17,.41H155.31l-9.77-.24-1-.71,10.78-.27Z" transform="translate(-21.63 -14.08)"/><path class="cls-18" d="M277.23,438.93h24.38l15.85.39c0,.15.08.3.13.45l-16,.39H155.31l-10.78-.27h0l10.78-.95Z" transform="translate(-21.63 -14.08)"/><path class="cls-18" d="M277.23,435.25h24.38l14.13.35c.09.18.17.36.26.52l-14.39.36H155.31l-10.78-.27,1-.34,9.77-.62Z" transform="translate(-21.63 -14.08)"/><path class="cls-18" d="M277.23,431.58h24.38l12.24.3h0c.08.14.2.35.33.61l-12.58.31H155.31l-10.78-.26h0l10.78-1Z" transform="translate(-21.63 -14.08)"/><path class="cls-6" d="M311,469.17a30.77,30.77,0,0,0,8-9.17,22.29,22.29,0,0,0,2.92-11.34,25.48,25.48,0,0,0-3-11.3,36.44,36.44,0,0,0-3.22-5.07,40.79,40.79,0,0,0-4.12-4.51,47.81,47.81,0,0,1,6.11,10,28.7,28.7,0,0,1,2.52,10.89,24.32,24.32,0,0,1-2.41,10.85,29.06,29.06,0,0,1-3,5A48.58,48.58,0,0,1,311,469.17Z" transform="translate(-21.63 -14.08)"/><path class="cls-7" d="M310.8,469.17a30,30,0,0,0,6.83-9.17,25.47,25.47,0,0,0,2.49-11.34,29,29,0,0,0-2.57-11.3,37.51,37.51,0,0,0-2.75-5.07,39.71,39.71,0,0,0-3.51-4.51,50.16,50.16,0,0,1,5.21,10,32.75,32.75,0,0,1,2.15,10.89,27.87,27.87,0,0,1-2,10.85,31,31,0,0,1-2.55,5A47.18,47.18,0,0,1,310.8,469.17Z" transform="translate(-21.63 -14.08)"/><path class="cls-30" d="M139,467.68H305a19.21,19.21,0,1,0,0-38.41H139c-1.67,0-3-.67-3-1.49s1.36-1.49,3-1.49H305a22.19,22.19,0,1,1,0,44.37H139c-1.67,0-3-.67-3-1.49S137.29,467.68,139,467.68Z" transform="translate(-21.63 -14.08)"/><path class="cls-31" d="M302.12,472.67c11.47,0,20.76,10.21,20.76,22.8s-9.29,22.79-20.76,22.79H135.7v-4l11.08.3H297l12.72-.33.54-.67L297,513.26H146.78l-11.08.3v-3.29l11.08.3H297q8.25-.21,16.5-.44l.14-.47L297,509.22H146.78l-11.08.3v-3.29l11.08.29H297c5.84-.16,11.68-.3,17.52-.47l.09-.42c-5.87-.17-11.74-.31-17.61-.47H146.78l-11.08.3v-3.29l11.08.3H297c6-.16,12-.3,18.08-.47,0-.14,0-.27,0-.41-6-.17-12.06-.31-18.1-.47H146.78l-11.08.3v-3.3l11.08.3H297l18.18-.48c0-.13,0-.27,0-.4L297,497.08H146.78l-11.08.29v-3.29l11.08.3H297c6-.16,12-.3,18.06-.47,0-.14,0-.29,0-.41q-9-.25-18-.47H146.78l-11.08.3V490l11.08.3H297l17.44-.46c0-.15-.07-.3-.1-.44L297,489H146.78l-11.08.3V486l11.08.3H297l16.41-.43c0-.17-.08-.33-.13-.49L297,485H146.78l-11.08.3V482l11.08.3H297l14.78-.4q-.13-.27-.27-.57L297,480.9H146.78l-11.08.3v-3.29l11.08.3H297l12.93-.34c-.14-.28-.26-.52-.35-.67h0L297,476.86H146.78l-11.08.3v-4.49Z" transform="translate(-21.63 -14.08)"/><path class="cls-18" d="M272,513.26h25l13.26.35-.54.67-12.72.33H146.78l-11.08-.3,1.05-.37,10-.68Z" transform="translate(-21.63 -14.08)"/><path class="cls-19" d="M272,509.22h25l16.64.44-.14.47q-8.25.24-16.5.44H146.78l-11.08-.3,1.57-.38,9.51-.67Z" transform="translate(-21.63 -14.08)"/><path class="cls-18" d="M272,505.17h25c5.87.16,11.74.3,17.61.47l-.09.42c-5.84.17-11.68.31-17.52.47H146.78l-11.08-1h0l11.08-.3Z" transform="translate(-21.63 -14.08)"/><path class="cls-18" d="M272,501.13h25c6,.16,12.07.3,18.1.47,0,.14,0,.27,0,.41-6,.17-12.05.31-18.08.47H146.78l-11.08-.3h0l11.08-1.05Z" transform="translate(-21.63 -14.08)"/><path class="cls-20" d="M272,497.09h25l18.17.48c0,.13,0,.27,0,.4l-18.18.48H146.78l-11.08-.3,1.79-.8,9.29-.24Z" transform="translate(-21.63 -14.08)"/><path class="cls-18" d="M272,493h25q9,.22,18,.47c0,.12,0,.27,0,.41-6,.17-12,.31-18.06.47H146.78l-11.08-.3,1.05-.38,10-.67Z" transform="translate(-21.63 -14.08)"/><path class="cls-18" d="M272,489h25l17.34.46c0,.14.07.29.1.44l-17.44.46H146.78l-10-.27-1-.78,11.08-.3Z" transform="translate(-21.63 -14.08)"/><path class="cls-18" d="M272,485h25l16.28.43c.05.16.09.32.13.49L297,486.3H146.78L135.7,486h0L146.78,485Z" transform="translate(-21.63 -14.08)"/><path class="cls-18" d="M272,480.9h25l14.51.39q.13.3.27.57l-14.78.4H146.78L135.7,482l1.05-.37,10-.68Z" transform="translate(-21.63 -14.08)"/><path class="cls-18" d="M272,476.86h25l12.57.33h0c.09.15.21.39.35.67l-12.93.34H146.78l-11.08-.3h0l11.08-1.05Z" transform="translate(-21.63 -14.08)"/><path class="cls-32" d="M306.7,518.26a33.51,33.51,0,0,0,8.23-10.1,26.22,26.22,0,0,0,3-12.49,29.84,29.84,0,0,0-3.1-12.45,40.76,40.76,0,0,0-3.31-5.58,45.42,45.42,0,0,0-4.22-5,54.58,54.58,0,0,1,6.27,11,33.22,33.22,0,0,1,2.58,12,28.57,28.57,0,0,1-2.46,11.95,33.45,33.45,0,0,1-3.07,5.5A51,51,0,0,1,306.7,518.26Z" transform="translate(-21.63 -14.08)"/><path class="cls-7" d="M306.48,518.26a33.2,33.2,0,0,0,7-10.1,30,30,0,0,0,2.56-12.49,33.94,33.94,0,0,0-2.65-12.45,42.26,42.26,0,0,0-2.82-5.58,45.08,45.08,0,0,0-3.61-5,56.71,56.71,0,0,1,5.35,11,38.12,38.12,0,0,1,2.21,12,32.73,32.73,0,0,1-2.1,11.95,35.07,35.07,0,0,1-2.62,5.5A53.34,53.34,0,0,1,306.48,518.26Z" transform="translate(-21.63 -14.08)"/><path class="cls-7" d="M130,516.62H300.48c11.08,0,20.1-9.49,20.1-21.15s-9-21.16-20.1-21.16H130c-1.73,0-3.12-.73-3.12-1.64S128.26,471,130,471H300.48c12.81,0,23.22,11,23.22,24.44s-10.41,24.43-23.22,24.43H130c-1.73,0-3.12-.73-3.12-1.64S128.26,516.62,130,516.62Z" transform="translate(-21.63 -14.08)"/><path class="cls-33" d="M313.7,521.91c14,0,25.33,10.21,25.33,22.8S327.69,567.5,313.7,567.5H110.62v-3.94l13.52.29H307.51l15.52-.34.65-.67-16.17-.35H124.14l-13.52.29v-3.29l13.52.3H307.51q10.07-.21,20.13-.44c.05-.15.11-.31.16-.47l-20.29-.44H124.14l-13.52.3v-3.29l13.52.29H307.51l21.37-.46.12-.43c-7.17-.17-14.33-.31-21.49-.46H124.14l-13.52.29v-3.29l13.52.3H307.51q11-.22,22.05-.47l0-.41c-7.36-.17-14.72-.31-22.08-.47H124.14l-13.52.3v-3.29l13.52.29H307.51l22.18-.48c0-.13,0-.27,0-.4l-22.16-.48H124.14l-13.52.29v-3.29l13.52.3H307.51q11-.23,22-.47c0-.14,0-.29,0-.41-7.34-.17-14.68-.31-22-.47H124.14l-13.52.3v-3.29l13.52.3H307.51l21.27-.46-.12-.44-21.15-.46H124.14l-13.52.29v-3.29l13.52.3H307.51l20-.43c-.06-.16-.11-.33-.17-.49l-19.85-.43H124.14l-13.52.3V531.2l13.52.29H307.51l18-.4-.33-.57-17.7-.38H124.14l-13.52.3v-3.3l13.52.3H307.51l15.76-.34c-.16-.28-.31-.51-.42-.67a0,0,0,0,1,0,0l-15.33-.33H124.14l-13.52.3v-4.49Z" transform="translate(-21.63 -14.08)"/><path class="cls-18" d="M277,562.51h30.56l16.17.35-.65.67-15.52.34H124.14l-13.52-.29,1.28-.38,12.24-.67Z" transform="translate(-21.63 -14.08)"/><path class="cls-19" d="M277,558.46h30.56l20.29.44c-.05.16-.11.32-.16.47q-10.06.24-20.13.44H124.14l-13.52-.3,1.91-.37,11.61-.68Z" transform="translate(-21.63 -14.08)"/><path class="cls-18" d="M277,554.42h30.56c7.16.15,14.32.29,21.49.46l-.12.43-21.37.46H124.14l-13.52-1h0l13.52-.29Z" transform="translate(-21.63 -14.08)"/><path class="cls-18" d="M277,550.37h30.56c7.36.16,14.72.3,22.08.47l0,.41q-11,.25-22.05.47H124.14l-13.52-.3h0l13.52-1Z" transform="translate(-21.63 -14.08)"/><path class="cls-20" d="M277,546.33h30.56l22.16.48c0,.13,0,.27,0,.4l-22.18.48H124.14l-13.52-.29,2.18-.8,11.34-.25Z" transform="translate(-21.63 -14.08)"/><path class="cls-18" d="M277,542.28h30.56c7.33.16,14.67.3,22,.47,0,.12,0,.27,0,.41q-11,.26-22,.47H124.14l-13.52-.3,1.28-.38,12.24-.67Z" transform="translate(-21.63 -14.08)"/><path class="cls-18" d="M277,538.24h30.56l21.15.46.12.44-21.27.46H124.14l-12.25-.27-1.27-.79,13.52-.29Z" transform="translate(-21.63 -14.08)"/><path class="cls-18" d="M277,534.19h30.56l19.85.43c.06.16.11.33.17.49l-20,.43H124.14l-13.52-.3h0l13.52-1Z" transform="translate(-21.63 -14.08)"/><path class="cls-18" d="M277,530.15h30.56l17.7.38.33.57-18,.4H124.14l-13.52-.29,1.28-.38,12.24-.67Z" transform="translate(-21.63 -14.08)"/><path class="cls-18" d="M277,526.1h30.56l15.33.33a0,0,0,0,0,0,0c.11.16.26.39.42.67l-15.76.34H124.14l-13.52-.3h0l13.52-1Z" transform="translate(-21.63 -14.08)"/><path class="cls-6" d="M319.29,567.5a35.85,35.85,0,0,0,10-10.1A22.47,22.47,0,0,0,333,544.91a25.61,25.61,0,0,0-3.78-12.45,39.68,39.68,0,0,0-4-5.58,48.54,48.54,0,0,0-5.15-5,52.79,52.79,0,0,1,7.65,11,28.33,28.33,0,0,1,3.15,12,24,24,0,0,1-3,11.95,31.43,31.43,0,0,1-3.74,5.5A51.83,51.83,0,0,1,319.29,567.5Z" transform="translate(-21.63 -14.08)"/><path class="cls-7" d="M319,567.5a33.87,33.87,0,0,0,8.56-10.1,25.35,25.35,0,0,0,3.13-12.49,29,29,0,0,0-3.23-12.45,40.63,40.63,0,0,0-3.44-5.58,46.09,46.09,0,0,0-4.41-5,54,54,0,0,1,6.54,11,32.44,32.44,0,0,1,2.69,12,27.61,27.61,0,0,1-2.57,11.95,32.4,32.4,0,0,1-3.2,5.5A50.08,50.08,0,0,1,319,567.5Z" transform="translate(-21.63 -14.08)"/><path class="cls-34" d="M103.64,565.86H311.7c13.53,0,24.53-9.49,24.53-21.15s-11-21.15-24.53-21.15H103.64c-2.1,0-3.8-.74-3.8-1.65s1.7-1.64,3.8-1.64H311.7c15.62,0,28.33,11,28.33,24.44s-12.71,24.43-28.33,24.43H103.64c-2.1,0-3.8-.73-3.8-1.64S101.54,565.86,103.64,565.86Z" transform="translate(-21.63 -14.08)"/><path class="cls-35" d="M302.12,571.15c11.47,0,20.76,10.21,20.76,22.8s-9.29,22.79-20.76,22.79H135.7V612.8l11.08.29H297l12.72-.33.54-.68L297,611.75H146.78l-11.08.3v-3.3l11.08.3H297q8.25-.21,16.5-.44c0-.15.09-.31.14-.47L297,607.7H146.78l-11.08.3v-3.29l11.08.3H297l17.52-.46.09-.43c-5.87-.17-11.74-.31-17.61-.46H146.78l-11.08.3v-3.3l11.08.3H297q9-.23,18.08-.47c0-.14,0-.27,0-.4q-9-.26-18.1-.48H146.78l-11.08.3v-3.29l11.08.3H297l18.18-.48c0-.13,0-.26,0-.4q-9.09-.25-18.17-.47H146.78l-11.08.29v-3.29l11.08.3H297q9-.23,18.06-.47c0-.14,0-.28,0-.41l-18-.47H146.78l-11.08.3v-3.29l11.08.3H297c5.81-.15,11.63-.29,17.44-.46,0-.15-.07-.29-.1-.44L297,587.48H146.78l-11.08.3v-3.3l11.08.3H297c5.48-.14,10.94-.27,16.41-.43,0-.16-.08-.33-.13-.49L297,583.43H146.78l-11.08.3v-3.29l11.08.3H297l14.78-.39-.27-.58L297,579.39H146.78l-11.08.3v-3.3l11.08.3H297l12.93-.34c-.14-.28-.26-.51-.35-.66s0,0,0,0L297,575.34H146.78l-11.08.3v-4.49Z" transform="translate(-21.63 -14.08)"/><path class="cls-3" d="M272,611.75h25l13.26.34-.54.68L297,613.1H146.78l-11.08-.29,1.05-.38,10-.67Z" transform="translate(-21.63 -14.08)"/><path class="cls-4" d="M272,607.7h25l16.64.44c-.05.16-.09.32-.14.47q-8.25.24-16.5.44H146.78l-11.08-.3,1.57-.37,9.51-.68Z" transform="translate(-21.63 -14.08)"/><path class="cls-3" d="M272,603.66h25c5.87.15,11.74.29,17.61.46l-.09.43L297,605H146.78l-11.08-1h0l11.08-.3Z" transform="translate(-21.63 -14.08)"/><path class="cls-3" d="M272,599.61h25q9.06.24,18.1.48c0,.13,0,.26,0,.4q-9,.25-18.08.47H146.78l-11.08-.3h0l11.08-1Z" transform="translate(-21.63 -14.08)"/><path class="cls-5" d="M272,595.57h25q9.09.23,18.17.47c0,.14,0,.27,0,.4l-18.18.48H146.78l-11.08-.3,1.79-.8,9.29-.25Z" transform="translate(-21.63 -14.08)"/><path class="cls-3" d="M272,591.52h25l18,.47c0,.13,0,.27,0,.41q-9,.26-18.06.47H146.78l-11.08-.3,1.05-.37,10-.68Z" transform="translate(-21.63 -14.08)"/><path class="cls-3" d="M272,587.48h25l17.34.45c0,.15.07.29.1.44-5.81.17-11.63.31-17.44.46H146.78l-10-.27-1-.78,11.08-.3Z" transform="translate(-21.63 -14.08)"/><path class="cls-3" d="M272,583.43h25l16.28.43c.05.16.09.33.13.49-5.47.16-10.93.29-16.41.43H146.78l-11.08-.3h0l11.08-1.05Z" transform="translate(-21.63 -14.08)"/><path class="cls-3" d="M272,579.39h25l14.51.38.27.58-14.78.39H146.78l-11.08-.3,1.05-.38,10-.67Z" transform="translate(-21.63 -14.08)"/><path class="cls-3" d="M272,575.34h25l12.57.33s0,0,0,0,.21.38.35.66l-12.93.34H146.78l-11.08-.3h0l11.08-1Z" transform="translate(-21.63 -14.08)"/><path class="cls-6" d="M306.7,616.74a33.51,33.51,0,0,0,8.23-10.1,26.21,26.21,0,0,0,3-12.48,29.85,29.85,0,0,0-3.1-12.46,40.76,40.76,0,0,0-3.31-5.58,45.42,45.42,0,0,0-4.22-5,54.58,54.58,0,0,1,6.27,11,33.31,33.31,0,0,1,2.58,12,28.54,28.54,0,0,1-2.46,12,33,33,0,0,1-3.07,5.5A49.88,49.88,0,0,1,306.7,616.74Z" transform="translate(-21.63 -14.08)"/><path class="cls-7" d="M306.48,616.74a33.2,33.2,0,0,0,7-10.1,30,30,0,0,0,2.56-12.48,34,34,0,0,0-2.65-12.46,42.26,42.26,0,0,0-2.82-5.58,45.08,45.08,0,0,0-3.61-5,56.71,56.71,0,0,1,5.35,11,38.22,38.22,0,0,1,2.21,12,32.69,32.69,0,0,1-2.1,12,34.65,34.65,0,0,1-2.62,5.5A52.12,52.12,0,0,1,306.48,616.74Z" transform="translate(-21.63 -14.08)"/><path class="cls-36" d="M130,615.1H300.48c11.08,0,20.1-9.49,20.1-21.15s-9-21.15-20.1-21.15H130c-1.73,0-3.12-.74-3.12-1.65s1.39-1.64,3.12-1.64H300.48c12.81,0,23.22,11,23.22,24.44s-10.41,24.44-23.22,24.44H130c-1.73,0-3.12-.74-3.12-1.65S128.26,615.1,130,615.1Z" transform="translate(-21.63 -14.08)"/></svg>